<svg fill="none" xmlns="http://www.w3.org/2000/svg" viewBox="0 0 48 48"><g clip-path="url(#alfa-romeo__a)"><mask id="alfa-romeo__b" style="mask-type:luminance" maskUnits="userSpaceOnUse" x="0" y="0" width="48" height="48"><path d="M0 0h48v48H0V0Z" fill="#fff"/></mask><g mask="url(#alfa-romeo__b)"><mask id="alfa-romeo__c" style="mask-type:luminance" maskUnits="userSpaceOnUse" x="2" y="2" width="44" height="44"><path d="M2 2h44v44H2V2Z" fill="#fff"/></mask><g mask="url(#alfa-romeo__c)"><path d="M24.002 2.045c-12.126 0-21.957 9.831-21.957 21.953 0 12.126 9.831 21.957 21.957 21.957 12.126 0 21.953-9.831 21.953-21.957 0-12.122-9.831-21.953-21.953-21.953Z" fill="url(#alfa-romeo__d)"/><path d="M14.167 26.198v7.734a13.937 13.937 0 0 1-3.966-7.734h3.966Zm0-12.13v7.635h-3.95a13.926 13.926 0 0 1 3.95-7.635ZM26.326 35.02h1.551c.468 0 .865.4.865.876 0 .406-.315.815-.943 1.225l-.028.018c-.219.143-1.084.71-2.632.813h-.037c-2.196.171-4.4-.179-6.435-1.022V26.198h3.8a4.467 4.467 0 0 0 2.565 2.287l-.095.046a3.436 3.436 0 0 0-1.952 3.077c0 1.848 1.53 3.412 3.341 3.412Z" fill="#919599"/><path fill-rule="evenodd" clip-rule="evenodd" d="M22.815 19.122h7.105c.19 0 .344.153.34.347 0 .19-.154.344-.344.344H26.48a4.446 4.446 0 0 0-3.635 1.89h-4.177V11.07a13.958 13.958 0 0 1 5.352-1.063c2.361 0 4.57.575 6.518 1.604l.016.013a.79.79 0 0 1-.368 1.489h-1.741c-.53 0-.947.136-1.27.417a2.116 2.116 0 0 0-.418.515l-.012.019c-.14.227-.178.256-.538.256l-3.267.005a.901.901 0 0 1 .037.082l.044.098c.245.561.596 1.363 1.462 2.073l.074.063-.082.05-.004.001c-.071.04-1.082.592-1.656 2.43Zm3.069-7.15a.45.45 0 0 0 .766.31.443.443 0 0 0 .127-.319.45.45 0 0 0-.45-.443.45.45 0 0 0-.443.451v.001Zm-2.7 1.401a.323.323 0 0 1-.228-.55.33.33 0 0 1 .227-.099l3.284-.017a.323.323 0 0 1 0 .646l-3.283.02ZM20.61 17.39c.248 0 .475-.1.633-.269a.457.457 0 0 1 .277-.116c.09 0 .132.046.132.145 0 .57-.14 1.725-.414 1.878 0 0-.004.004-.024.004-.013 0-.034 0-.046-.004-.01 0-.02 0-.03-.002a.312.312 0 0 0-.032-.002c-.025 0-.045.004-.066.008-.248.074-.393.34-.472.484l-.053.095.082.02c.145.034.286.054.422.054a1.3 1.3 0 0 0 .902-.351c.231-.223.372-.534.533-.893.228-.51.513-1.138 1.179-1.783l.05-.046-.05-.05c-.666-.644-.951-1.273-1.179-1.782-.161-.36-.302-.67-.533-.889a1.272 1.272 0 0 0-.902-.351c-.142 0-.284.018-.422.053l-.082.021.053.095.004.006c.079.146.22.405.468.478.02.005.041.008.062.008.02 0 .041 0 .062-.004.009 0 .018 0 .026-.002a.134.134 0 0 1 .02-.002c.016 0 .02.004.02.004.269.157.414 1.307.414 1.882 0 .1-.042.14-.133.14a.468.468 0 0 1-.277-.111.858.858 0 0 0-.637-.269c-.405 0-.83.273-.852.728v.091c.03.46.46.732.865.732Zm4.222-4.967a.45.45 0 0 1-.45-.443.45.45 0 0 1 .442-.45.45.45 0 0 1 .324.76.442.442 0 0 1-.316.133Zm-1.98-.434a.45.45 0 0 0 .62.407.445.445 0 0 0 .138-.73.45.45 0 0 0-.316-.128.45.45 0 0 0-.443.45l.001.001Z" fill="#919599"/><path d="M35.896 18.08c0-.67-.103-1.315-.293-1.923a13.928 13.928 0 0 1 2.407 7.84c0 5.059-2.684 9.488-6.704 11.945l.004-.004.087-.186c.186-.385.277-.794.277-1.22a2.84 2.84 0 0 0-1.133-2.28l-.087-.061a4.113 4.113 0 0 0 1.108-8.052 6.402 6.402 0 0 0 4.334-6.059Z" fill="#919599"/><path d="M22.03 24.27c0-.735.181-1.43.496-2.042h-4.388V11.3a13.968 13.968 0 0 0-3.445 2.27v8.657h-4.554c-.074.579-.111 1.17-.111 1.774 0 .567.033 1.125.099 1.67h4.566v8.76a14.09 14.09 0 0 0 3.445 2.27V25.67h4.115a4.457 4.457 0 0 1-.224-1.398l.001-.002Z" fill="url(#alfa-romeo__e)"/><path d="M19.837 16.703v.007c.004-.004.004-.007 0-.007Z" fill="#000"/><path d="M30.384 24.486a3.594 3.594 0 1 1 0 7.188h-4.161a.265.265 0 1 0 .004.53h2.605-.008a2.328 2.328 0 0 1 2.329 2.328c0 .657-.273 1.253-.716 1.675 0 0-.087.103-.293.256-.17.108-.34.203-.505.285-.38.17-.77.319-1.166.455.41-.248.794-.686.794-1.315 0-.757-.629-1.398-1.394-1.398l-.128-.004h-1.423c-1.522 0-2.816-1.315-2.816-2.882 0-1.526 1.294-2.883 2.816-2.883H30.4a.263.263 0 0 0 .265-.26.266.266 0 0 0-.265-.265h-3.92a3.926 3.926 0 0 1-3.93-3.93 3.927 3.927 0 0 1 3.93-3.928h3.444c.468 0 .848-.426.848-.898a.85.85 0 0 0-.848-.848h-6.307c.447-1.356 1.498-1.674 1.498-1.674h3.379a.29.29 0 0 0-.001-.58H25.14s-.95-.512-1.377-1.492h2.448c.993 0 .828-.497 1.312-.919.165-.144.434-.29.922-.29l1.741-.003c.653 0 1.195-.476 1.299-1.096l.016.004a5.879 5.879 0 0 1-2.002 11.406H26.36a.267.267 0 0 0-.264.265c0 .145.12.265.264.265l4.024.008Z" fill="url(#alfa-romeo__f)"/><path d="m22.968 6.268-.008-1.046v-.009h.008l1.824-.016c.153 0 .277.055.365.146a.56.56 0 0 1 .144.388.537.537 0 0 1-.138.384.515.515 0 0 1-.376.145l-1.81.016h-.009v-.008Z" fill="url(#alfa-romeo__g)"/><path d="m15.867 8.574.013.01-.013.007-1.29.74-.012.007v-.016l-.042-1.604v-.016l.012.008 1.332.864Z" fill="url(#alfa-romeo__h)"/><path d="m6.645 22.15-1.282-.968-.015-.011.016-.006 1.504-.505.015-.004-.002.017-.223 1.467-.003.017-.01-.007Z" fill="url(#alfa-romeo__i)"/><path d="M41.89 23.094h.002a.918.918 0 0 0 .688-.506c.14-.275.187-.652.113-1.1-.13-.783-.577-1.254-1.106-1.254a1.196 1.196 0 0 0-.17.016.932.932 0 0 0-.689.507c-.142.275-.19.649-.118 1.09.133.803.569 1.262 1.11 1.262a.866.866 0 0 0 .17-.015Z" fill="url(#alfa-romeo__j)"/><path d="M29.887 6.223c.212 0 .439.043.672.123.415.149.714.372.881.63.166.256.207.55.102.857a.94.94 0 0 1-.371.492c-.194.12-.42.18-.647.172-.212 0-.438-.043-.675-.127-.414-.149-.711-.373-.878-.632a.953.953 0 0 1-.098-.86.915.915 0 0 1 .368-.485c.169-.11.386-.17.646-.17Z" fill="url(#alfa-romeo__k)"/><path fill-rule="evenodd" clip-rule="evenodd" d="M2.922 23.998c0-11.638 9.438-21.076 21.076-21.076 11.642 0 21.08 9.438 21.076 21.076 0 11.638-9.434 21.076-21.076 21.076-11.638 0-21.076-9.438-21.076-21.076Zm6.473 0c0 8.077 6.546 14.624 14.624 14.624 8.077 0 14.623-6.547 14.623-14.624 0-8.077-6.546-14.624-14.623-14.624-8.077 0-14.624 6.547-14.624 14.624ZM25.489 6.9l.094-.04.002-.002c.402-.194.622-.594.617-1.088-.004-.394-.131-.72-.364-.949-.233-.228-.564-.349-.96-.349l-2.762.025h-.22l.06.12a.792.792 0 0 1 .082.272v.005l.025 3.09.918-.01-.009-.967V7h.009l1.567-.012h.01l.002.003.682.965 1.022-.01-.776-1.028h-.001l-.008-.012.01-.006Zm-10.827-.076-1.134.654.076.076c.071.07.119.156.133.25v.015l.06 3.51.802-.457-.022-.706v-.007l.005-.004 1.963-1.128.007-.004.002.002.584.379.798-.461-3.274-2.119ZM4.759 20.51l-.204 1.304.116-.023a.46.46 0 0 1 .277.057l.02.01h.004l2.771 2.133.14-.916-.565-.423-.005-.003v-.004l.34-2.238v-.002l.005-.002.661-.223.14-.912-3.7 1.242Zm3.842-3.31 1.192-2.367.643.338-1.617 3.212-2.724-1.428a.687.687 0 0 0-.282-.057h-.146l.486-.968 2.435 1.274.001.001.008.004.004-.01v.001Zm2.335-4.32 1.354-1.47-.517-.495-1.356 1.473-.005.005-.004-.004-.63-.605-.006-.006.006-.006 1.953-2.124-.516-.495-2.692 2.925.13.036c.09.023.173.063.248.118l.017.013 2.197 2.108.629-.685-.808-.776-.006-.005.006-.007Zm31.113 11.159a1.41 1.41 0 0 1-.276.026c-.947 0-1.7-.865-1.905-2.091-.223-1.345.337-2.495 1.39-2.676h.003c.09-.013.18-.022.268-.022.935 0 1.704.88 1.906 2.087.226 1.352-.337 2.503-1.386 2.676Zm-2.92-8.752-.008.004-.571.31-.001.001-.006.003.003.005 1.398 2.69-.625.34-1.834-3.525 2.644-1.437a.704.704 0 0 0 .228-.21l.079-.112 1.837 3.53-.625.34-1.338-2.574-.003-.006-.008.004-.542.294-.006.003.003.006.93 1.784-.624.34-.928-1.783-.001-.001-.003-.006h.001Zm-8.325-9.67a3.11 3.11 0 0 0-1.037-.188c-.863 0-1.536.417-1.786 1.131-.356 1.028.35 2.09 1.618 2.541.355.127.707.195 1.053.195.86 0 1.529-.42 1.774-1.135.175-.502.095-1.037-.22-1.508-.301-.456-.801-.82-1.402-1.036Zm7.334 4.892.768.73-2.114 2.792-.675-.63 1.396-1.892.011-.014-.017.004-2.584.606.341-2.703.003-.025-.016.016-1.682 1.626-.68-.634 2.197-2.133a.605.605 0 0 0 .151-.276l.036-.132.905.837-.27 2.316v.001l-.001.01.008-.002 2.223-.497Z" fill="url(#alfa-romeo__l)"/></g></g></g><defs><linearGradient id="alfa-romeo__d" x1="-4.525" y1="10.41" x2="54.763" y2="38.657" gradientUnits="userSpaceOnUse"><stop offset=".097" stop-color="#fff"/><stop offset=".276" stop-color="#BFC0C2"/><stop offset=".346" stop-color="#D8D9DA"/><stop offset=".441" stop-color="#F5F5F5"/><stop offset=".502" stop-color="#fff"/><stop offset=".542" stop-color="#F3F3F4"/><stop offset=".613" stop-color="#D2D2D5"/><stop offset=".706" stop-color="#A0A2A5"/><stop offset=".726" stop-color="#94969A"/><stop offset=".906" stop-color="#fff"/></linearGradient><linearGradient id="alfa-romeo__e" x1="8.385" y1="17.281" x2="23.275" y2="27.745" gradientUnits="userSpaceOnUse"><stop offset=".116" stop-color="#D00A10"/><stop offset=".497" stop-color="#B52936"/><stop offset=".571" stop-color="#A82130"/><stop offset=".712" stop-color="#921526"/><stop offset=".834" stop-color="#850E20"/><stop offset=".922" stop-color="#800B1D"/></linearGradient><linearGradient id="alfa-romeo__g" x1="39.705" y1="28.431" x2="8.998" y2="19.767" gradientUnits="userSpaceOnUse"><stop offset=".194" stop-color="#0F1635"/><stop offset=".402" stop-color="#003A65"/><stop offset=".509" stop-color="#004B7F"/><stop offset=".582" stop-color="#004473"/><stop offset=".713" stop-color="#003158"/><stop offset=".861" stop-color="#0B1937"/></linearGradient><linearGradient id="alfa-romeo__h" x1="39.705" y1="28.431" x2="8.998" y2="19.767" gradientUnits="userSpaceOnUse"><stop offset=".194" stop-color="#0F1635"/><stop offset=".402" stop-color="#003A65"/><stop offset=".509" stop-color="#004B7F"/><stop offset=".582" stop-color="#004473"/><stop offset=".713" stop-color="#003158"/><stop offset=".861" stop-color="#0B1937"/></linearGradient><linearGradient id="alfa-romeo__i" x1="39.705" y1="28.431" x2="8.998" y2="19.767" gradientUnits="userSpaceOnUse"><stop offset=".194" stop-color="#0F1635"/><stop offset=".402" stop-color="#003A65"/><stop offset=".509" stop-color="#004B7F"/><stop offset=".582" stop-color="#004473"/><stop offset=".713" stop-color="#003158"/><stop offset=".861" stop-color="#0B1937"/></linearGradient><linearGradient id="alfa-romeo__j" x1="39.705" y1="28.431" x2="8.998" y2="19.767" gradientUnits="userSpaceOnUse"><stop offset=".194" stop-color="#0F1635"/><stop offset=".402" stop-color="#003A65"/><stop offset=".509" stop-color="#004B7F"/><stop offset=".582" stop-color="#004473"/><stop offset=".713" stop-color="#003158"/><stop offset=".861" stop-color="#0B1937"/></linearGradient><linearGradient id="alfa-romeo__k" x1="39.705" y1="28.431" x2="8.998" y2="19.767" gradientUnits="userSpaceOnUse"><stop offset=".194" stop-color="#0F1635"/><stop offset=".402" stop-color="#003A65"/><stop offset=".509" stop-color="#004B7F"/><stop offset=".582" stop-color="#004473"/><stop offset=".713" stop-color="#003158"/><stop offset=".861" stop-color="#0B1937"/></linearGradient><linearGradient id="alfa-romeo__l" x1="39.705" y1="28.431" x2="8.998" y2="19.767" gradientUnits="userSpaceOnUse"><stop offset=".194" stop-color="#0F1635"/><stop offset=".402" stop-color="#003A65"/><stop offset=".509" stop-color="#004B7F"/><stop offset=".582" stop-color="#004473"/><stop offset=".713" stop-color="#003158"/><stop offset=".861" stop-color="#0B1937"/></linearGradient><radialGradient id="alfa-romeo__f" cx="0" cy="0" r="1" gradientUnits="userSpaceOnUse" gradientTransform="matrix(6 3 -7.39999 14.8 32.263 14.134)"><stop offset=".166" stop-color="#107D50"/><stop offset=".254" stop-color="#007A4F"/><stop offset=".352" stop-color="#00754D"/><stop offset=".658" stop-color="#005F3C"/><stop offset=".785" stop-color="#005635"/></radialGradient><clipPath id="alfa-romeo__a"><path fill="#fff" d="M0 0h48v48H0z"/></clipPath></defs></svg>