<svg width="29" height="13" viewBox="0 0 29 13" fill="none" xmlns="http://www.w3.org/2000/svg">
<path id="ApplePay" fill-rule="evenodd" clip-rule="evenodd" d="M5.82773 1.67081C5.50305 2.10855 4.98357 2.45381 4.46408 2.40448C4.39915 1.81261 4.65348 1.18375 4.9511 0.795329C5.27578 0.345259 5.84397 0.0246609 6.30393 0C6.35804 0.616534 6.147 1.22074 5.82773 1.67081ZM6.29822 2.52161C5.84057 2.4916 5.42297 2.67842 5.08567 2.82932C4.86861 2.92643 4.6848 3.00867 4.54496 3.00867C4.38803 3.00867 4.19663 2.92204 3.98173 2.82477C3.70014 2.69732 3.37821 2.5516 3.04061 2.5586C2.2668 2.57093 1.54709 3.07032 1.15207 3.86565C0.340369 5.45631 0.941024 7.81147 1.72566 9.10619C2.10987 9.74738 2.56983 10.4502 3.1759 10.4256C3.44253 10.4141 3.63433 10.3214 3.83283 10.2254C4.06135 10.1149 4.29874 10.0002 4.66942 10.0002C5.02724 10.0002 5.25426 10.1119 5.47218 10.2192C5.67938 10.3213 5.87837 10.4193 6.17376 10.4132C6.80148 10.4009 7.1965 9.77205 7.58071 9.13085C7.99532 8.44268 8.17752 7.77105 8.20518 7.66913L8.20842 7.65733C8.20776 7.65658 8.20264 7.65391 8.19361 7.6492L8.1936 7.64919C8.05499 7.5769 6.99562 7.02434 6.98546 5.54262C6.97526 4.29893 7.82573 3.66881 7.95961 3.56961C7.96775 3.56358 7.97325 3.5595 7.97573 3.55738C7.4346 2.64491 6.59044 2.54627 6.29822 2.52161ZM10.6436 10.3453V0.733521H13.8092C15.4434 0.733521 16.5852 2.01591 16.5852 3.89017C16.5852 5.76444 15.4217 7.05916 13.7659 7.05916H11.9531V10.3453H10.6436ZM11.9531 1.992H13.4629C14.5993 1.992 15.2486 2.68252 15.2486 3.89709C15.2486 5.11167 14.5993 5.80835 13.4575 5.80835H11.9531V1.992ZM20.9091 9.1924C20.5628 9.94458 19.7998 10.4193 18.9773 10.4193C17.7597 10.4193 16.9102 9.59315 16.9102 8.34775C16.9102 7.11469 17.7327 6.40567 19.2533 6.30086L20.8875 6.18989V5.65967C20.8875 4.87667 20.4383 4.45126 19.6375 4.45126C18.9773 4.45126 18.4957 4.83968 18.3983 5.43155H17.2186C17.2565 4.18615 18.2846 3.27985 19.6753 3.27985C21.1743 3.27985 22.1483 4.17382 22.1483 5.56102V10.3453H20.9362V9.1924H20.9091ZM19.3283 9.27913C18.6303 9.27913 18.1865 8.89688 18.1865 8.31118C18.1865 7.70697 18.614 7.35555 19.4311 7.30006L20.8868 7.19525V7.7378C20.8868 8.63794 20.2158 9.27913 19.3283 9.27913ZM26.1692 10.7213C25.6443 12.4045 25.0436 12.9594 23.7665 12.9594C23.6691 12.9594 23.3445 12.947 23.2687 12.9224V11.7694C23.3499 11.7818 23.5501 11.7941 23.6529 11.7941C24.2319 11.7941 24.5566 11.5167 24.7568 10.7953L24.8759 10.3699L22.6572 3.37225H24.0263L25.5685 9.05053H25.5956L27.1378 3.37225H28.469L26.1692 10.7213Z" fill="black"/>
</svg>
