<svg width="200" height="164" viewBox="0 0 200 164" fill="none" xmlns="http://www.w3.org/2000/svg">
<g id="Frame">
<rect width="200" height="164" rx="4" fill="#E6EAEF"/>
<g id="Group">
<path id="Vector" d="M171.564 143.5H28.439C27.9062 143.5 27.3823 143.389 26.9169 143.176C26.4514 142.964 26.06 142.657 25.7798 142.286C25.4996 141.914 25.3398 141.49 25.3157 141.053C25.2916 140.617 25.4039 140.183 25.6421 139.792L32.7671 128.125L25.6515 116.458C25.4137 116.068 25.3013 115.634 25.325 115.199C25.3486 114.763 25.5076 114.339 25.7867 113.968C26.0658 113.597 26.456 113.29 26.9201 113.077C27.3842 112.864 27.907 112.751 28.439 112.75H171.564C172.098 112.748 172.624 112.858 173.091 113.069C173.559 113.281 173.953 113.587 174.235 113.959C174.517 114.331 174.678 114.756 174.703 115.193C174.728 115.631 174.615 116.066 174.376 116.458L167.236 128.125L174.351 139.792C174.589 140.182 174.702 140.616 174.678 141.052C174.654 141.487 174.495 141.911 174.216 142.282C173.937 142.654 173.547 142.96 173.083 143.173C172.619 143.387 172.096 143.499 171.564 143.5Z" fill="#C80A50"/>
<g id="Group_2">
<path id="Vector_2" d="M131.397 139.658C130.574 139.682 129.753 139.571 128.983 139.331C128.213 139.091 127.509 138.727 126.913 138.26C126.317 137.794 125.841 137.235 125.512 136.615C125.184 135.996 125.009 135.329 125 134.653C125 134.314 125.165 133.988 125.458 133.747C125.751 133.507 126.148 133.372 126.562 133.372C126.977 133.372 127.374 133.507 127.667 133.747C127.96 133.988 128.125 134.314 128.125 134.653C128.125 135.301 128.439 135.922 128.997 136.38C129.556 136.838 130.313 137.095 131.103 137.095C131.516 137.119 131.93 137.075 132.321 136.963C132.712 136.852 133.071 136.677 133.377 136.449C133.683 136.221 133.929 135.944 134.1 135.635C134.272 135.326 134.365 134.993 134.375 134.653C134.372 134.143 134.174 133.645 133.809 133.232C133.443 132.818 132.929 132.508 132.338 132.347L129.172 131.481C127.81 131.097 126.657 130.331 125.918 129.318C125.178 128.305 124.899 127.11 125.131 125.945C125.362 124.779 126.088 123.718 127.181 122.949C128.274 122.181 129.663 121.753 131.103 121.744C131.924 121.72 132.743 121.83 133.511 122.069C134.279 122.307 134.981 122.669 135.577 123.133C136.173 123.597 136.65 124.153 136.98 124.77C137.31 125.387 137.487 126.052 137.5 126.725C137.5 127.065 137.335 127.391 137.042 127.631C136.749 127.871 136.352 128.006 135.938 128.006C135.523 128.006 135.126 127.871 134.833 127.631C134.54 127.391 134.375 127.065 134.375 126.725C134.375 126.077 134.061 125.456 133.503 124.998C132.944 124.54 132.187 124.283 131.397 124.283C130.984 124.259 130.57 124.304 130.179 124.415C129.788 124.526 129.429 124.701 129.123 124.929C128.817 125.158 128.571 125.435 128.4 125.743C128.228 126.052 128.135 126.386 128.125 126.725C128.128 127.236 128.326 127.733 128.691 128.147C129.057 128.561 129.571 128.87 130.162 129.031L133.328 129.897C134.701 130.274 135.866 131.039 136.615 132.056C137.364 133.072 137.647 134.273 137.415 135.445C137.183 136.617 136.45 137.684 135.348 138.453C134.245 139.223 132.845 139.647 131.397 139.648V139.658ZM147.022 139.658C146.199 139.682 145.378 139.571 144.608 139.331C143.838 139.091 143.134 138.727 142.538 138.26C141.942 137.794 141.466 137.235 141.137 136.615C140.809 135.996 140.634 135.329 140.625 134.653C140.625 134.314 140.79 133.988 141.083 133.747C141.376 133.507 141.773 133.372 142.188 133.372C142.602 133.372 142.999 133.507 143.292 133.747C143.585 133.988 143.75 134.314 143.75 134.653C143.75 135.301 144.064 135.922 144.622 136.38C145.181 136.838 145.938 137.095 146.728 137.095C147.141 137.119 147.555 137.075 147.946 136.963C148.337 136.852 148.696 136.677 149.002 136.449C149.308 136.221 149.554 135.944 149.725 135.635C149.897 135.326 149.99 134.993 150 134.653C149.997 134.143 149.799 133.645 149.434 133.232C149.068 132.818 148.554 132.508 147.963 132.347L144.797 131.481C143.435 131.097 142.282 130.331 141.543 129.318C140.803 128.305 140.524 127.11 140.756 125.945C140.987 124.779 141.713 123.718 142.806 122.949C143.899 122.181 145.288 121.753 146.728 121.744C147.549 121.72 148.368 121.83 149.136 122.069C149.904 122.307 150.606 122.669 151.202 123.133C151.798 123.597 152.275 124.153 152.605 124.77C152.935 125.387 153.112 126.052 153.125 126.725C153.125 127.065 152.96 127.391 152.667 127.631C152.374 127.871 151.977 128.006 151.562 128.006C151.148 128.006 150.751 127.871 150.458 127.631C150.165 127.391 150 127.065 150 126.725C150 126.077 149.686 125.456 149.128 124.998C148.569 124.54 147.812 124.283 147.022 124.283C146.609 124.259 146.195 124.304 145.804 124.415C145.413 124.526 145.054 124.701 144.748 124.929C144.442 125.158 144.196 125.435 144.025 125.743C143.853 126.052 143.76 126.386 143.75 126.725C143.753 127.236 143.951 127.733 144.316 128.147C144.682 128.561 145.196 128.87 145.787 129.031L148.953 129.897C150.326 130.274 151.491 131.039 152.24 132.056C152.989 133.072 153.272 134.273 153.04 135.445C152.808 136.617 152.075 137.684 150.973 138.453C149.87 139.223 148.47 139.647 147.022 139.648V139.658ZM57.8125 139.658H48.4375C48.0231 139.658 47.6257 139.523 47.3326 139.283C47.0396 139.042 46.875 138.717 46.875 138.377V123.002C46.875 122.662 47.0396 122.336 47.3326 122.096C47.6257 121.855 48.0231 121.72 48.4375 121.72H57.8125C58.2269 121.72 58.6243 121.855 58.9174 122.096C59.2104 122.336 59.375 122.662 59.375 123.002C59.375 123.342 59.2104 123.667 58.9174 123.908C58.6243 124.148 58.2269 124.283 57.8125 124.283H50V137.095H57.8125C58.2269 137.095 58.6243 137.23 58.9174 137.471C59.2104 137.711 59.375 138.037 59.375 138.377C59.375 138.717 59.2104 139.042 58.9174 139.283C58.6243 139.523 58.2269 139.658 57.8125 139.658Z" fill="#A00028"/>
<path id="Vector_3" d="M57.8125 131.97H48.4375C48.0231 131.97 47.6257 131.835 47.3326 131.595C47.0396 131.355 46.875 131.029 46.875 130.689C46.875 130.349 47.0396 130.024 47.3326 129.783C47.6257 129.543 48.0231 129.408 48.4375 129.408H57.8125C58.2269 129.408 58.6243 129.543 58.9174 129.783C59.2104 130.024 59.375 130.349 59.375 130.689C59.375 131.029 59.2104 131.355 58.9174 131.595C58.6243 131.835 58.2269 131.97 57.8125 131.97ZM120.312 139.658H110.938C110.523 139.658 110.126 139.523 109.833 139.283C109.54 139.042 109.375 138.717 109.375 138.377V123.002C109.375 122.662 109.54 122.336 109.833 122.096C110.126 121.855 110.523 121.72 110.938 121.72H120.312C120.727 121.72 121.124 121.855 121.417 122.096C121.71 122.336 121.875 122.662 121.875 123.002C121.875 123.342 121.71 123.667 121.417 123.908C121.124 124.148 120.727 124.283 120.312 124.283H112.5V137.095H120.312C120.727 137.095 121.124 137.23 121.417 137.471C121.71 137.711 121.875 138.037 121.875 138.377C121.875 138.717 121.71 139.042 121.417 139.283C121.124 139.523 120.727 139.658 120.312 139.658Z" fill="#A00028"/>
<path id="Vector_4" d="M120.312 131.969H110.937C110.523 131.969 110.125 131.834 109.832 131.593C109.539 131.353 109.375 131.027 109.375 130.687C109.375 130.348 109.539 130.022 109.832 129.781C110.125 129.541 110.523 129.406 110.937 129.406H120.312C120.726 129.406 121.124 129.541 121.417 129.781C121.71 130.022 121.875 130.348 121.875 130.687C121.875 131.027 121.71 131.353 121.417 131.593C121.124 131.834 120.726 131.969 120.312 131.969ZM73.4371 139.656C73.1471 139.656 72.8629 139.59 72.6162 139.465C72.3695 139.34 72.1701 139.162 72.0402 138.949L62.6652 123.574C62.5714 123.423 62.5148 123.259 62.4988 123.09C62.4829 122.922 62.5077 122.752 62.572 122.592C62.6363 122.431 62.7387 122.282 62.8734 122.154C63.008 122.026 63.1723 121.921 63.3566 121.846C63.541 121.77 63.7418 121.725 63.9475 121.713C64.1532 121.701 64.3597 121.723 64.5552 121.777C64.7506 121.831 64.9311 121.916 65.0862 122.027C65.2413 122.139 65.368 122.274 65.4589 122.426L74.8339 137.801C74.9533 137.996 75.0098 138.213 74.998 138.432C74.9862 138.65 74.9065 138.862 74.7665 139.048C74.6266 139.234 74.4309 139.387 74.1982 139.494C73.9655 139.6 73.7035 139.656 73.4371 139.656Z" fill="#A00028"/>
<path id="Vector_5" d="M64.0624 139.656C63.796 139.656 63.534 139.6 63.3013 139.494C63.0686 139.387 62.873 139.234 62.733 139.048C62.593 138.862 62.5133 138.65 62.5015 138.432C62.4897 138.213 62.5462 137.996 62.6656 137.801L72.0406 122.426C72.1315 122.274 72.2582 122.139 72.4133 122.027C72.5684 121.916 72.7489 121.831 72.9443 121.777C73.1398 121.723 73.3463 121.701 73.552 121.713C73.7577 121.725 73.9585 121.77 74.1429 121.846C74.3272 121.921 74.4915 122.026 74.6262 122.154C74.7608 122.282 74.8632 122.431 74.9275 122.592C74.9918 122.752 75.0167 122.922 75.0007 123.09C74.9847 123.259 74.9281 123.423 74.8343 123.574L65.4593 138.949C65.3294 139.162 65.13 139.34 64.8833 139.465C64.6366 139.59 64.3524 139.656 64.0624 139.656ZM84.3749 131.969H79.6874C79.273 131.969 78.8756 131.834 78.5826 131.593C78.2896 131.353 78.1249 131.027 78.1249 130.687V123C78.1249 122.66 78.2896 122.334 78.5826 122.094C78.8756 121.854 79.273 121.719 79.6874 121.719H84.3749C86.0325 121.719 87.6223 122.259 88.7944 123.22C89.9665 124.181 90.6249 125.484 90.6249 126.844C90.6249 128.203 89.9665 129.507 88.7944 130.468C87.6223 131.429 86.0325 131.969 84.3749 131.969ZM81.2499 129.406H84.3749C85.2037 129.406 85.9986 129.136 86.5847 128.656C87.1707 128.175 87.4999 127.523 87.4999 126.844C87.4999 126.164 87.1707 125.512 86.5847 125.032C85.9986 124.551 85.2037 124.281 84.3749 124.281H81.2499V129.406Z" fill="#A00028"/>
<path id="Vector_6" d="M79.6875 139.656C79.2731 139.656 78.8757 139.521 78.5826 139.281C78.2896 139.041 78.125 138.715 78.125 138.375V123C78.125 122.66 78.2896 122.334 78.5826 122.094C78.8757 121.854 79.2731 121.719 79.6875 121.719C80.1019 121.719 80.4993 121.854 80.7924 122.094C81.0854 122.334 81.25 122.66 81.25 123V138.375C81.25 138.715 81.0854 139.041 80.7924 139.281C80.4993 139.521 80.1019 139.656 79.6875 139.656ZM104.687 139.656C104.36 139.656 104.04 139.571 103.774 139.414C103.509 139.257 103.31 139.035 103.206 138.78L100.081 131.092C100.007 130.931 99.9737 130.759 99.9827 130.587C99.9916 130.415 100.043 130.246 100.133 130.09C100.224 129.935 100.351 129.796 100.509 129.681C100.666 129.567 100.85 129.48 101.05 129.426C101.249 129.371 101.46 129.35 101.669 129.364C101.879 129.378 102.083 129.426 102.269 129.506C102.455 129.586 102.62 129.696 102.753 129.83C102.886 129.963 102.985 130.117 103.044 130.283L106.169 137.97C106.299 138.292 106.269 138.644 106.084 138.947C105.898 139.251 105.574 139.482 105.181 139.59C105.022 139.634 104.855 139.656 104.687 139.656Z" fill="#A00028"/>
<path id="Vector_7" d="M100 131.969H95.3125C94.8981 131.969 94.5007 131.834 94.2076 131.593C93.9146 131.353 93.75 131.027 93.75 130.688V123C93.75 122.66 93.9146 122.334 94.2076 122.094C94.5007 121.854 94.8981 121.719 95.3125 121.719H100C101.658 121.719 103.247 122.259 104.419 123.22C105.592 124.181 106.25 125.485 106.25 126.844C106.25 128.203 105.592 129.507 104.419 130.468C103.247 131.429 101.658 131.969 100 131.969ZM96.875 129.406H100C100.829 129.406 101.624 129.136 102.21 128.656C102.796 128.175 103.125 127.523 103.125 126.844C103.125 126.164 102.796 125.512 102.21 125.032C101.624 124.551 100.829 124.281 100 124.281H96.875V129.406Z" fill="#A00028"/>
<path id="Vector_8" d="M95.3125 139.656C94.8981 139.656 94.5007 139.521 94.2076 139.281C93.9146 139.041 93.75 138.715 93.75 138.375V123C93.75 122.66 93.9146 122.334 94.2076 122.094C94.5007 121.854 94.8981 121.719 95.3125 121.719C95.7269 121.719 96.1243 121.854 96.4174 122.094C96.7104 122.334 96.875 122.66 96.875 123V138.375C96.875 138.715 96.7104 139.041 96.4174 139.281C96.1243 139.521 95.7269 139.656 95.3125 139.656Z" fill="#A00028"/>
</g>
<path id="Vector_9" d="M181.25 82V99.9375C181.25 100.617 180.921 101.269 180.335 101.749C179.749 102.23 178.954 102.5 178.125 102.5H131.25V51.25H157.375C158.816 51.2498 160.212 51.6577 161.329 52.4049C162.445 53.152 163.212 54.1924 163.5 55.35L168.75 76.875H175C176.656 76.8791 178.243 77.4203 179.414 78.3806C180.585 79.3408 181.245 80.642 181.25 82Z" fill="#C80A50"/>
<path id="Vector_10" d="M164.375 58.9375H131.25V51.25H157.375C158.816 51.2498 160.212 51.6577 161.329 52.4049C162.445 53.152 163.212 54.1924 163.5 55.35L164.375 58.9375Z" fill="#A00028"/>
<path id="Vector_11" d="M184.375 97.375H40.625C38.8991 97.375 37.5 98.5223 37.5 99.9375C37.5 101.353 38.8991 102.5 40.625 102.5H184.375C186.101 102.5 187.5 101.353 187.5 99.9375C187.5 98.5223 186.101 97.375 184.375 97.375Z" fill="#00A0C8"/>
<path id="Vector_12" d="M168.75 76.875H140.625C139.796 76.875 139.001 76.605 138.415 76.1245C137.829 75.6439 137.5 74.9921 137.5 74.3125V64.0625C137.5 63.3829 137.829 62.7311 138.415 62.2505C139.001 61.77 139.796 61.5 140.625 61.5H165L168.75 76.875Z" fill="#0A5078"/>
<path id="Vector_13" d="M131.25 43.5625V97.375H43.75V43.5625C43.7549 42.2045 44.415 40.9033 45.586 39.9431C46.7571 38.9828 48.3439 38.4416 50 38.4375H125C126.656 38.4416 128.243 38.9828 129.414 39.9431C130.585 40.9033 131.245 42.2045 131.25 43.5625Z" fill="#FAB400"/>
<path id="Vector_14" d="M68.75 112.75C75.6536 112.75 81.25 108.161 81.25 102.5C81.25 96.8391 75.6536 92.25 68.75 92.25C61.8464 92.25 56.25 96.8391 56.25 102.5C56.25 108.161 61.8464 112.75 68.75 112.75Z" fill="#0A5078"/>
<path id="Vector_15" d="M68.75 107.625C72.2018 107.625 75 105.33 75 102.5C75 99.6695 72.2018 97.375 68.75 97.375C65.2982 97.375 62.5 99.6695 62.5 102.5C62.5 105.33 65.2982 107.625 68.75 107.625Z" fill="#F0F0F0"/>
<path id="Vector_16" d="M156.25 112.75C163.154 112.75 168.75 108.161 168.75 102.5C168.75 96.8391 163.154 92.25 156.25 92.25C149.346 92.25 143.75 96.8391 143.75 102.5C143.75 108.161 149.346 112.75 156.25 112.75Z" fill="#0A5078"/>
<path id="Vector_17" d="M156.25 107.625C159.702 107.625 162.5 105.33 162.5 102.5C162.5 99.6695 159.702 97.375 156.25 97.375C152.798 97.375 150 99.6695 150 102.5C150 105.33 152.798 107.625 156.25 107.625Z" fill="#F0F0F0"/>
<path id="Vector_18" d="M131.25 48.6875H165.625C167.283 48.6875 168.872 49.2275 170.044 50.1886C171.217 51.1497 171.875 52.4533 171.875 53.8125C171.875 54.4921 171.546 55.1439 170.96 55.6245C170.374 56.105 169.579 56.375 168.75 56.375H131.25V48.6875Z" fill="#00A0C8"/>
<path id="Vector_19" d="M145.312 82H139.062C138.2 82 137.5 82.5736 137.5 83.2812C137.5 83.9889 138.2 84.5625 139.062 84.5625H145.312C146.175 84.5625 146.875 83.9889 146.875 83.2812C146.875 82.5736 146.175 82 145.312 82Z" fill="#F0F0F0"/>
<path id="Vector_20" d="M71.875 79.4375H103.125C103.954 79.4375 104.749 79.1675 105.335 78.687C105.921 78.2064 106.25 77.5546 106.25 76.875C106.25 76.1954 105.921 75.5436 105.335 75.063C104.749 74.5825 103.954 74.3125 103.125 74.3125H71.875C71.0462 74.3125 70.2513 74.5825 69.6653 75.063C69.0792 75.5436 68.75 76.1954 68.75 76.875C68.75 77.5546 69.0792 78.2064 69.6653 78.687C70.2513 79.1675 71.0462 79.4375 71.875 79.4375ZM103.125 84.5625H71.875C71.0462 84.5625 70.2513 84.8325 69.6653 85.313C69.0792 85.7936 68.75 86.4454 68.75 87.125C68.75 87.8046 69.0792 88.4564 69.6653 88.937C70.2513 89.4175 71.0462 89.6875 71.875 89.6875H103.125C103.954 89.6875 104.749 89.4175 105.335 88.937C105.921 88.4564 106.25 87.8046 106.25 87.125C106.25 86.4454 105.921 85.7936 105.335 85.313C104.749 84.8325 103.954 84.5625 103.125 84.5625Z" fill="#0A5078"/>
<path id="Vector_21" d="M90.625 23.0625V28.1875C90.625 28.8671 90.2958 29.5189 89.7097 29.9995C89.1237 30.48 88.3288 30.75 87.5 30.75C86.6712 30.75 85.8763 30.48 85.2903 29.9995C84.7042 29.5189 84.375 28.8671 84.375 28.1875V23.0625C84.375 22.3829 84.7042 21.7311 85.2903 21.2505C85.8763 20.77 86.6712 20.5 87.5 20.5C88.3288 20.5 89.1237 20.77 89.7097 21.2505C90.2958 21.7311 90.625 22.3829 90.625 23.0625Z" fill="#C80A50"/>
<path id="Vector_22" d="M108.459 29.998L104.041 33.6213C103.752 33.8661 103.408 34.0613 103.026 34.1956C102.645 34.3299 102.235 34.4006 101.82 34.4036C101.405 34.4065 100.994 34.3417 100.61 34.2128C100.226 34.084 99.8767 33.8937 99.5833 33.6531C99.2898 33.4125 99.0578 33.1264 98.9007 32.8115C98.7435 32.4966 98.6645 32.1591 98.6681 31.8189C98.6717 31.4786 98.7579 31.1424 98.9217 30.8297C99.0855 30.5171 99.3235 30.2344 99.622 29.998L104.041 26.3746C104.63 25.9078 105.42 25.6495 106.239 25.6554C107.058 25.6612 107.842 25.9307 108.421 26.4058C109.001 26.8809 109.329 27.5236 109.337 28.1955C109.344 28.8674 109.029 29.5147 108.459 29.998Z" fill="#0A5078"/>
<path id="Vector_23" d="M75.3788 33.6213C74.7928 34.1017 73.998 34.3716 73.1694 34.3716C72.3408 34.3716 71.5461 34.1017 70.96 33.6213L66.5413 29.998C65.972 29.5147 65.6571 28.8674 65.6642 28.1955C65.6713 27.5236 66 26.8809 66.5794 26.4058C67.1588 25.9307 67.9425 25.6612 68.7619 25.6554C69.5813 25.6495 70.3707 25.9078 70.96 26.3746L75.3788 29.998C75.9646 30.4785 76.2937 31.1302 76.2937 31.8097C76.2937 32.4891 75.9646 33.1408 75.3788 33.6213Z" fill="#00A0C8"/>
<path id="Vector_24" d="M95 66.1125L87.5 61.5L80 66.1125C79.5357 66.398 78.9836 66.5719 78.4056 66.6147C77.8276 66.6574 77.2465 66.5673 76.7275 66.3545C76.2084 66.1416 75.7718 65.8145 75.4667 65.4097C75.1616 65.0049 75 64.5384 75 64.0625V38.4375H100V64.0625C100 64.5384 99.8384 65.0049 99.5333 65.4097C99.2282 65.8145 98.7916 66.1416 98.2725 66.3545C97.7535 66.5673 97.1724 66.6574 96.5944 66.6147C96.0164 66.5719 95.4643 66.398 95 66.1125Z" fill="#C80A50"/>
<path id="Vector_25" d="M131.397 137.094C130.574 137.118 129.753 137.006 128.983 136.766C128.213 136.526 127.509 136.163 126.913 135.696C126.317 135.23 125.841 134.671 125.512 134.051C125.184 133.432 125.009 132.765 125 132.089C125 131.749 125.165 131.423 125.458 131.183C125.751 130.943 126.148 130.808 126.562 130.808C126.977 130.808 127.374 130.943 127.667 131.183C127.96 131.423 128.125 131.749 128.125 132.089C128.125 132.737 128.439 133.358 128.997 133.816C129.556 134.274 130.313 134.531 131.103 134.531C131.516 134.555 131.93 134.51 132.321 134.399C132.712 134.288 133.071 134.113 133.377 133.885C133.683 133.656 133.929 133.38 134.1 133.071C134.272 132.762 134.365 132.428 134.375 132.089C134.372 131.578 134.174 131.081 133.809 130.667C133.443 130.254 132.929 129.944 132.338 129.783L129.172 128.917C127.81 128.533 126.657 127.767 125.918 126.754C125.178 125.741 124.899 124.546 125.131 123.38C125.362 122.215 126.088 121.154 127.181 120.385C128.274 119.616 129.663 119.189 131.103 119.179C131.924 119.155 132.743 119.266 133.511 119.504C134.279 119.743 134.981 120.105 135.577 120.569C136.173 121.033 136.65 121.589 136.98 122.206C137.31 122.823 137.487 123.487 137.5 124.161C137.5 124.501 137.335 124.827 137.042 125.067C136.749 125.307 136.352 125.442 135.938 125.442C135.523 125.442 135.126 125.307 134.833 125.067C134.54 124.827 134.375 124.501 134.375 124.161C134.375 123.513 134.061 122.892 133.503 122.434C132.944 121.976 132.187 121.719 131.397 121.719C130.984 121.695 130.57 121.74 130.179 121.851C129.788 121.962 129.429 122.137 129.123 122.365C128.817 122.594 128.571 122.87 128.4 123.179C128.228 123.488 128.135 123.822 128.125 124.161C128.128 124.672 128.326 125.169 128.691 125.583C129.057 125.996 129.571 126.306 130.162 126.467L133.328 127.333C134.701 127.71 135.866 128.475 136.615 129.491C137.364 130.508 137.647 131.709 137.415 132.881C137.183 134.053 136.45 135.119 135.348 135.889C134.245 136.659 132.845 137.082 131.397 137.083V137.094ZM147.022 137.094C146.199 137.118 145.378 137.006 144.608 136.766C143.838 136.526 143.134 136.163 142.538 135.696C141.942 135.23 141.466 134.671 141.137 134.051C140.809 133.432 140.634 132.765 140.625 132.089C140.625 131.749 140.79 131.423 141.083 131.183C141.376 130.943 141.773 130.808 142.188 130.808C142.602 130.808 142.999 130.943 143.292 131.183C143.585 131.423 143.75 131.749 143.75 132.089C143.75 132.737 144.064 133.358 144.622 133.816C145.181 134.274 145.938 134.531 146.728 134.531C147.141 134.555 147.555 134.51 147.946 134.399C148.337 134.288 148.696 134.113 149.002 133.885C149.308 133.656 149.554 133.38 149.725 133.071C149.897 132.762 149.99 132.428 150 132.089C149.997 131.578 149.799 131.081 149.434 130.667C149.068 130.254 148.554 129.944 147.963 129.783L144.797 128.917C143.435 128.533 142.282 127.767 141.543 126.754C140.803 125.741 140.524 124.546 140.756 123.38C140.987 122.215 141.713 121.154 142.806 120.385C143.899 119.616 145.288 119.189 146.728 119.179C147.549 119.155 148.368 119.266 149.136 119.504C149.904 119.743 150.606 120.105 151.202 120.569C151.798 121.033 152.275 121.589 152.605 122.206C152.935 122.823 153.112 123.487 153.125 124.161C153.125 124.501 152.96 124.827 152.667 125.067C152.374 125.307 151.977 125.442 151.562 125.442C151.148 125.442 150.751 125.307 150.458 125.067C150.165 124.827 150 124.501 150 124.161C150 123.513 149.686 122.892 149.128 122.434C148.569 121.976 147.812 121.719 147.022 121.719C146.609 121.695 146.195 121.74 145.804 121.851C145.413 121.962 145.054 122.137 144.748 122.365C144.442 122.594 144.196 122.87 144.025 123.179C143.853 123.488 143.76 123.822 143.75 124.161C143.753 124.672 143.951 125.169 144.316 125.583C144.682 125.996 145.196 126.306 145.787 126.467L148.953 127.333C150.326 127.71 151.491 128.475 152.24 129.491C152.989 130.508 153.272 131.709 153.04 132.881C152.808 134.053 152.075 135.119 150.973 135.889C149.87 136.659 148.47 137.082 147.022 137.083V137.094ZM57.8125 137.094H48.4375C48.0231 137.094 47.6257 136.959 47.3326 136.718C47.0396 136.478 46.875 136.152 46.875 135.812V120.437C46.875 120.098 47.0396 119.772 47.3326 119.532C47.6257 119.291 48.0231 119.156 48.4375 119.156H57.8125C58.2269 119.156 58.6243 119.291 58.9174 119.532C59.2104 119.772 59.375 120.098 59.375 120.437C59.375 120.777 59.2104 121.103 58.9174 121.343C58.6243 121.584 58.2269 121.719 57.8125 121.719H50V134.531H57.8125C58.2269 134.531 58.6243 134.666 58.9174 134.907C59.2104 135.147 59.375 135.473 59.375 135.812C59.375 136.152 59.2104 136.478 58.9174 136.718C58.6243 136.959 58.2269 137.094 57.8125 137.094Z" fill="#F0F0F0"/>
<path id="Vector_26" d="M57.8125 129.406H48.4375C48.0231 129.406 47.6257 129.271 47.3326 129.031C47.0396 128.791 46.875 128.465 46.875 128.125C46.875 127.785 47.0396 127.459 47.3326 127.219C47.6257 126.979 48.0231 126.844 48.4375 126.844H57.8125C58.2269 126.844 58.6243 126.979 58.9174 127.219C59.2104 127.459 59.375 127.785 59.375 128.125C59.375 128.465 59.2104 128.791 58.9174 129.031C58.6243 129.271 58.2269 129.406 57.8125 129.406ZM120.312 137.094H110.938C110.523 137.094 110.126 136.959 109.833 136.718C109.54 136.478 109.375 136.152 109.375 135.812V120.438C109.375 120.098 109.54 119.772 109.833 119.532C110.126 119.291 110.523 119.156 110.938 119.156H120.312C120.727 119.156 121.124 119.291 121.417 119.532C121.71 119.772 121.875 120.098 121.875 120.438C121.875 120.777 121.71 121.103 121.417 121.343C121.124 121.584 120.727 121.719 120.312 121.719H112.5V134.531H120.312C120.727 134.531 121.124 134.666 121.417 134.907C121.71 135.147 121.875 135.473 121.875 135.812C121.875 136.152 121.71 136.478 121.417 136.718C121.124 136.959 120.727 137.094 120.312 137.094Z" fill="#F0F0F0"/>
<path id="Vector_27" d="M120.312 129.406H110.937C110.523 129.406 110.125 129.271 109.832 129.031C109.539 128.791 109.375 128.465 109.375 128.125C109.375 127.785 109.539 127.459 109.832 127.219C110.125 126.979 110.523 126.844 110.937 126.844H120.312C120.726 126.844 121.124 126.979 121.417 127.219C121.71 127.459 121.875 127.785 121.875 128.125C121.875 128.465 121.71 128.791 121.417 129.031C121.124 129.271 120.726 129.406 120.312 129.406ZM73.4371 137.094C73.1471 137.094 72.8629 137.028 72.6162 136.903C72.3695 136.778 72.1701 136.599 72.0402 136.386L62.6652 121.011C62.5714 120.861 62.5148 120.697 62.4988 120.528C62.4829 120.359 62.5077 120.19 62.572 120.029C62.6363 119.869 62.7387 119.72 62.8734 119.592C63.008 119.464 63.1723 119.359 63.3566 119.283C63.541 119.207 63.7418 119.162 63.9475 119.15C64.1532 119.139 64.3597 119.16 64.5552 119.214C64.7506 119.268 64.9311 119.353 65.0862 119.465C65.2413 119.576 65.368 119.712 65.4589 119.863L74.8339 135.238C74.9533 135.434 75.0098 135.651 74.998 135.869C74.9862 136.087 74.9065 136.3 74.7665 136.486C74.6266 136.671 74.4309 136.825 74.1982 136.931C73.9655 137.038 73.7035 137.094 73.4371 137.094Z" fill="#F0F0F0"/>
<path id="Vector_28" d="M64.0624 137.094C63.796 137.094 63.534 137.038 63.3013 136.931C63.0686 136.825 62.873 136.671 62.733 136.486C62.593 136.3 62.5133 136.087 62.5015 135.869C62.4897 135.651 62.5462 135.434 62.6656 135.238L72.0406 119.863C72.1315 119.712 72.2582 119.576 72.4133 119.465C72.5684 119.353 72.7489 119.268 72.9443 119.214C73.1398 119.16 73.3463 119.139 73.552 119.15C73.7577 119.162 73.9585 119.207 74.1429 119.283C74.3272 119.359 74.4915 119.464 74.6262 119.592C74.7608 119.72 74.8632 119.869 74.9275 120.029C74.9918 120.19 75.0167 120.359 75.0007 120.528C74.9847 120.697 74.9281 120.861 74.8343 121.011L65.4593 136.386C65.3294 136.599 65.13 136.778 64.8833 136.903C64.6366 137.028 64.3524 137.094 64.0624 137.094ZM84.3749 129.406H79.6874C79.273 129.406 78.8756 129.271 78.5826 129.031C78.2896 128.791 78.1249 128.465 78.1249 128.125V120.437C78.1249 120.098 78.2896 119.772 78.5826 119.531C78.8756 119.291 79.273 119.156 79.6874 119.156H84.3749C86.0325 119.156 87.6223 119.696 88.7944 120.657C89.9665 121.618 90.6249 122.922 90.6249 124.281C90.6249 125.64 89.9665 126.944 88.7944 127.905C87.6223 128.866 86.0325 129.406 84.3749 129.406ZM81.2499 126.844H84.3749C85.2037 126.844 85.9986 126.574 86.5847 126.093C87.1707 125.613 87.4999 124.961 87.4999 124.281C87.4999 123.602 87.1707 122.95 86.5847 122.469C85.9986 121.989 85.2037 121.719 84.3749 121.719H81.2499V126.844Z" fill="#F0F0F0"/>
<path id="Vector_29" d="M79.6875 137.094C79.2731 137.094 78.8757 136.959 78.5826 136.718C78.2896 136.478 78.125 136.152 78.125 135.812V120.438C78.125 120.098 78.2896 119.772 78.5826 119.532C78.8757 119.291 79.2731 119.156 79.6875 119.156C80.1019 119.156 80.4993 119.291 80.7924 119.532C81.0854 119.772 81.25 120.098 81.25 120.438V135.812C81.25 136.152 81.0854 136.478 80.7924 136.718C80.4993 136.959 80.1019 137.094 79.6875 137.094ZM104.687 137.094C104.36 137.094 104.04 137.009 103.774 136.852C103.509 136.694 103.31 136.472 103.206 136.217L100.081 128.53C100.007 128.369 99.9737 128.197 99.9827 128.024C99.9916 127.852 100.043 127.683 100.133 127.528C100.224 127.372 100.351 127.233 100.509 127.119C100.666 127.005 100.85 126.918 101.05 126.863C101.249 126.809 101.46 126.788 101.669 126.802C101.879 126.816 102.083 126.864 102.269 126.944C102.455 127.024 102.62 127.134 102.753 127.267C102.886 127.401 102.985 127.555 103.044 127.72L106.169 135.408C106.299 135.73 106.269 136.081 106.084 136.385C105.898 136.689 105.574 136.92 105.181 137.027C105.022 137.071 104.855 137.094 104.687 137.094Z" fill="#F0F0F0"/>
<path id="Vector_30" d="M100 129.406H95.3125C94.8981 129.406 94.5007 129.271 94.2076 129.031C93.9146 128.791 93.75 128.465 93.75 128.125V120.438C93.75 120.098 93.9146 119.772 94.2076 119.532C94.5007 119.291 94.8981 119.156 95.3125 119.156H100C101.658 119.156 103.247 119.696 104.419 120.657C105.592 121.618 106.25 122.922 106.25 124.281C106.25 125.64 105.592 126.944 104.419 127.905C103.247 128.866 101.658 129.406 100 129.406ZM96.875 126.844H100C100.829 126.844 101.624 126.574 102.21 126.093C102.796 125.613 103.125 124.961 103.125 124.281C103.125 123.602 102.796 122.95 102.21 122.469C101.624 121.989 100.829 121.719 100 121.719H96.875V126.844Z" fill="#F0F0F0"/>
<path id="Vector_31" d="M95.3125 137.094C94.8981 137.094 94.5007 136.959 94.2076 136.718C93.9146 136.478 93.75 136.152 93.75 135.812V120.438C93.75 120.098 93.9146 119.772 94.2076 119.532C94.5007 119.291 94.8981 119.156 95.3125 119.156C95.7269 119.156 96.1243 119.291 96.4174 119.532C96.7104 119.772 96.875 120.098 96.875 120.438V135.812C96.875 136.152 96.7104 136.478 96.4174 136.718C96.1243 136.959 95.7269 137.094 95.3125 137.094Z" fill="#F0F0F0"/>
<path id="Vector_32" d="M34.375 64.0625H21.875C21.0462 64.0625 20.2513 63.7925 19.6653 63.312C19.0792 62.8314 18.75 62.1796 18.75 61.5C18.75 60.8204 19.0792 60.1686 19.6653 59.688C20.2513 59.2075 21.0462 58.9375 21.875 58.9375H34.375C35.2038 58.9375 35.9987 59.2075 36.5847 59.688C37.1708 60.1686 37.5 60.8204 37.5 61.5C37.5 62.1796 37.1708 62.8314 36.5847 63.312C35.9987 63.7925 35.2038 64.0625 34.375 64.0625ZM34.375 84.5625H21.875C21.0462 84.5625 20.2513 84.2925 19.6653 83.812C19.0792 83.3314 18.75 82.6796 18.75 82C18.75 81.3204 19.0792 80.6686 19.6653 80.188C20.2513 79.7075 21.0462 79.4375 21.875 79.4375H34.375C35.2038 79.4375 35.9987 79.7075 36.5847 80.188C37.1708 80.6686 37.5 81.3204 37.5 82C37.5 82.6796 37.1708 83.3314 36.5847 83.812C35.9987 84.2925 35.2038 84.5625 34.375 84.5625Z" fill="#00A0C8"/>
<path id="Vector_33" d="M31.25 74.3125H15.625C14.7962 74.3125 14.0013 74.0425 13.4153 73.562C12.8292 73.0814 12.5 72.4296 12.5 71.75C12.5 71.0704 12.8292 70.4186 13.4153 69.938C14.0013 69.4575 14.7962 69.1875 15.625 69.1875H31.25C32.0788 69.1875 32.8737 69.4575 33.4597 69.938C34.0458 70.4186 34.375 71.0704 34.375 71.75C34.375 72.4296 34.0458 73.0814 33.4597 73.562C32.8737 74.0425 32.0788 74.3125 31.25 74.3125Z" fill="#C80A50"/>
</g>
</g>
</svg>
