<svg width="51" height="22" viewBox="0 0 51 22" fill="none" xmlns="http://www.w3.org/2000/svg">
<path d="M19.3228 11.2003C19.3228 10.4589 19.2614 9.9179 19.1286 9.35687H10.4902V12.703H15.5608C15.4586 13.5346 14.9065 14.7869 13.6798 15.6284L13.6626 15.7404L16.3938 17.814L16.5831 17.8325C18.3209 16.2596 19.3228 13.9453 19.3228 11.2003Z" fill="#4285F4"/>
<path d="M10.4887 20.0166C12.9729 20.0166 15.0583 19.2151 16.5816 17.8326L13.6782 15.6284C12.9013 16.1594 11.8586 16.5301 10.4887 16.5301C8.05571 16.5301 5.99071 14.9572 5.25459 12.7832L5.14669 12.7922L2.30667 14.9462L2.26953 15.0474C3.7825 17.9928 6.89026 20.0166 10.4887 20.0166Z" fill="#34A853"/>
<path d="M5.25551 12.7833C5.06127 12.2222 4.94887 11.6211 4.94887 11C4.94887 10.3788 5.06128 9.77771 5.24529 9.21669L5.24014 9.0972L2.36452 6.90863L2.27044 6.95249C1.64687 8.17475 1.28906 9.54731 1.28906 11C1.28906 12.4526 1.64687 13.8251 2.27044 15.0474L5.25551 12.7833Z" fill="#FBBC05"/>
<path d="M10.4888 5.46979C12.2164 5.46979 13.3818 6.20114 14.0463 6.8123L16.643 4.32771C15.0482 2.87504 12.9729 1.9834 10.4888 1.9834C6.89028 1.9834 3.78251 4.00711 2.26953 6.95251L5.24439 9.21671C5.99073 7.04271 8.05574 5.46979 10.4888 5.46979Z" fill="#EB4335"/>
<g clip-path="url(#clip0_12814_4199)">
<path fill-rule="evenodd" clip-rule="evenodd" d="M18.1351 4.71182C17.6737 5.28752 16.9355 5.74158 16.1973 5.67672C16.105 4.89832 16.4664 4.07127 16.8894 3.56044C17.3507 2.96853 18.1582 2.5469 18.8118 2.51447C18.8887 3.3253 18.5888 4.11992 18.1351 4.71182ZM18.8035 5.8303C18.1531 5.79083 17.5597 6.03653 17.0804 6.23499C16.7719 6.3627 16.5107 6.47085 16.312 6.47085C16.089 6.47085 15.817 6.35692 15.5116 6.229C15.1115 6.06138 14.654 5.86975 14.1743 5.87895C13.0746 5.89516 12.0519 6.55194 11.4906 7.59791C10.3371 9.68986 11.1907 12.7872 12.3057 14.49C12.8516 15.3333 13.5053 16.2576 14.3665 16.2252C14.7454 16.2101 15.018 16.0882 15.3 15.9619C15.6248 15.8166 15.9621 15.6657 16.4889 15.6657C16.9973 15.6657 17.3199 15.8127 17.6296 15.9538C17.9241 16.088 18.2068 16.2169 18.6266 16.209C19.5186 16.1927 20.08 15.3657 20.6259 14.5224C21.2151 13.6174 21.474 12.7341 21.5133 12.6L21.5179 12.5845C21.517 12.5835 21.5097 12.58 21.4969 12.5738C21.2999 12.4788 19.7945 11.7521 19.7801 9.80338C19.7656 8.16775 20.9741 7.33904 21.1644 7.20858C21.1759 7.20064 21.1837 7.19529 21.1873 7.1925C20.4183 5.99246 19.2187 5.86273 18.8035 5.8303ZM24.9785 16.1209V3.47997H29.477C31.7993 3.47997 33.4218 5.1665 33.4218 7.63144C33.4218 10.0964 31.7685 11.7991 29.4155 11.7991H26.8394V16.1209H24.9785ZM26.8389 5.1346H28.9844C30.5992 5.1346 31.522 6.04273 31.522 7.64007C31.522 9.23741 30.5992 10.1537 28.9767 10.1537H26.8389V5.1346ZM39.5657 14.6027C39.0736 15.592 37.9893 16.2163 36.8205 16.2163C35.0903 16.2163 33.883 15.1298 33.883 13.4919C33.883 11.8702 35.0519 10.9378 37.2127 10.7999L39.535 10.654V9.95667C39.535 8.92691 38.8967 8.36744 37.7586 8.36744C36.8205 8.36744 36.1361 8.87826 35.9977 9.65666H34.3213C34.3752 8.01878 35.8362 6.82686 37.8125 6.82686C39.9425 6.82686 41.3267 8.00257 41.3267 9.82694V16.119H39.6042V14.6027H39.5657ZM37.3208 14.7172C36.3288 14.7172 35.6982 14.2144 35.6982 13.4442C35.6982 12.6495 36.3057 12.1874 37.4669 12.1144L39.5354 11.9766V12.6901C39.5354 13.8739 38.5819 14.7172 37.3208 14.7172ZM47.0404 16.6136C46.2945 18.8272 45.441 19.5569 43.6262 19.5569C43.4878 19.5569 43.0264 19.5407 42.9187 19.5083V17.992C43.0341 18.0082 43.3186 18.0245 43.4647 18.0245C44.2875 18.0245 44.7489 17.6596 45.0334 16.7109L45.2026 16.1514L42.0498 6.94848H43.9953L46.1869 14.4163H46.2253L48.4169 6.94848H50.3085L47.0404 16.6136Z" fill="#5F6267"/>
</g>
<defs>
<clipPath id="clip0_12814_4199">
<rect width="27.1469" height="16.9668" fill="white" transform="translate(23.6094 2.5166)"/>
</clipPath>
</defs>
</svg>
