<svg width="44" height="26" viewBox="0 0 44 26" fill="none" xmlns="http://www.w3.org/2000/svg">
<g id="Mastercard">
<path id="Left" fill-rule="evenodd" clip-rule="evenodd" d="M30.6557 25.9999C38.0255 25.9999 43.9999 20.1797 43.9999 13C43.9999 5.82028 38.0255 0 30.6557 0C27.3528 0 24.3301 1.16902 22 3.1055C19.6698 1.16903 16.6472 3.05176e-05 13.3443 3.05176e-05C5.97443 3.05176e-05 0 5.82031 0 13C0 20.1797 5.97443 26 13.3443 26C16.6472 26 19.6698 24.831 22 22.8945C24.3302 24.8309 27.3528 25.9999 30.6557 25.9999Z" fill="#ED0006"/>
<path id="Right" fill-rule="evenodd" clip-rule="evenodd" d="M22 22.8945C24.8692 20.51 26.6886 16.962 26.6886 13C26.6886 9.03796 24.8692 5.48992 22 3.10549C24.3302 1.16901 27.3528 0 30.6557 0C38.0255 0 44 5.82028 44 13C44 20.1797 38.0255 25.9999 30.6557 25.9999C27.3528 25.9999 24.3302 24.8309 22 22.8945Z" fill="#F9A000"/>
<path id="Middle" fill-rule="evenodd" clip-rule="evenodd" d="M21.9991 22.8943C24.8682 20.5099 26.6876 16.9619 26.6876 12.9999C26.6876 9.03792 24.8682 5.4899 21.9991 3.10547C19.1299 5.4899 17.3105 9.03792 17.3105 12.9999C17.3105 16.9619 19.1299 20.5099 21.9991 22.8943Z" fill="#FF5E00"/>
</g>
</svg>
