<svg width="200" height="163" viewBox="0 0 200 163" fill="none" xmlns="http://www.w3.org/2000/svg">
<rect y="-1.5" width="200" height="164" rx="4" fill="#E6EAEF"/>
<path d="M99.9993 129.603C123.322 129.603 142.229 125.727 142.229 120.946C142.229 116.165 123.322 112.289 99.9993 112.289C76.6764 112.289 57.7695 116.165 57.7695 120.946C57.7695 125.727 76.6764 129.603 99.9993 129.603Z" fill="#006DF0"/>
<path d="M144.341 65.5405C144.341 72.5355 138.978 81.3484 131.989 89.8843C125.281 97.8615 117.879 105.43 109.839 112.531C104.117 117.656 99.9997 120.946 99.9997 120.946C99.9997 120.946 95.8823 117.656 90.1601 112.531C77.09 100.827 55.6584 79.5131 55.6584 65.5405C55.6584 55.8973 60.3301 46.649 68.6457 39.8303C76.9613 33.0115 88.2396 29.1807 99.9997 29.1807C111.76 29.1807 123.038 33.0115 131.354 39.8303C139.669 46.649 144.341 55.8973 144.341 65.5405Z" fill="#C80A50"/>
<path d="M100 91.5118C117.493 91.5118 131.673 79.884 131.673 65.5405C131.673 51.197 117.493 39.5692 100 39.5692C82.5083 39.5692 68.3281 51.197 68.3281 65.5405C68.3281 79.884 82.5083 91.5118 100 91.5118Z" fill="#F1F2F2"/>
<path d="M99.9993 39.5692C98.9308 39.5692 97.8751 39.616 96.832 39.7008C104.641 40.3479 111.879 43.3494 117.142 48.1236C122.406 52.8978 125.32 59.1045 125.32 65.5405C125.32 71.9765 122.406 78.1832 117.142 82.9574C111.879 87.7316 104.641 90.7331 96.832 91.3802C97.8751 91.465 98.9308 91.5118 99.9993 91.5118C108.399 91.5118 116.455 88.7755 122.395 83.905C128.335 79.0344 131.672 72.4285 131.672 65.5405C131.672 58.6525 128.335 52.0466 122.395 47.176C116.455 42.3055 108.399 39.5692 99.9993 39.5692Z" fill="#D1D3D4"/>
<path d="M116.891 58.6148H83.1074L85.2189 51.6891H114.78L116.891 58.6148Z" fill="#A97C50"/>
<path d="M83.1074 58.6148H116.891V79.3918H83.1074V58.6148Z" fill="#8B5E3C"/>
<path d="M91.5527 79.3919H116.891V58.6149C116.891 64.1253 114.221 69.41 109.469 73.3064C104.718 77.2029 98.2727 79.3919 91.5527 79.3919Z" fill="#754C29"/>
<path d="M95.7773 58.6149H104.223V65.5405H95.7773V58.6149Z" fill="#EE8700"/>
<path d="M95.7773 51.6891H104.223V58.6148H95.7773V51.6891Z" fill="#FF9811"/>
<path d="M99.9986 37.8378C93.3168 37.8378 86.7851 39.4625 81.2294 42.5065C75.6737 45.5505 71.3435 49.8771 68.7865 54.9391C66.2295 60.0011 65.5605 65.5712 66.864 70.945C68.1676 76.3188 71.3852 81.2549 76.1099 85.1292C80.8346 89.0035 86.8543 91.642 93.4078 92.7109C99.9612 93.7798 106.754 93.2312 112.927 91.1344C119.1 89.0377 124.377 85.4869 128.089 80.9313C131.801 76.3756 133.782 71.0195 133.782 65.5405C133.771 58.1962 130.208 51.1555 123.874 45.9623C117.541 40.7691 108.955 37.8474 99.9986 37.8378ZM99.9986 89.7803C94.1521 89.7803 88.4368 88.3587 83.5755 85.6952C78.7143 83.0317 74.9254 79.2459 72.688 74.8167C70.4506 70.3874 69.8652 65.5136 71.0058 60.8115C72.1464 56.1094 74.9618 51.7903 79.096 48.4003C83.2301 45.0103 88.4974 42.7017 94.2316 41.7664C99.9659 40.8311 105.91 41.3111 111.311 43.1458C116.713 44.9804 121.329 48.0873 124.578 52.0735C127.826 56.0597 129.559 60.7463 129.559 65.5405C129.551 71.9672 126.434 78.1287 120.892 82.6731C115.35 87.2174 107.836 89.7735 99.9986 89.7803Z" fill="#231F20"/>
<path d="M114.315 111.077C127.639 98.8357 146.452 79.1321 146.452 65.5405C146.452 55.4381 141.558 45.7494 132.847 38.6059C124.135 31.4625 112.32 27.4493 99.9996 27.4493C87.6796 27.4493 75.8641 31.4625 67.1526 38.6059C58.441 45.7494 53.5469 55.4381 53.5469 65.5405C53.5469 79.1321 72.3602 98.8357 85.6837 111.077C75.7808 111.821 55.6584 114.176 55.6584 120.946C55.6584 128.079 78.6524 131.334 99.9996 131.334C121.347 131.334 144.341 128.079 144.341 120.946C144.341 114.176 124.218 111.821 114.315 111.077ZM57.7698 65.5405C57.7698 56.3565 62.219 47.5486 70.1386 41.0545C78.0583 34.5605 88.7996 30.9121 99.9996 30.9121C111.2 30.9121 121.941 34.5605 129.861 41.0545C137.78 47.5486 142.229 56.3565 142.229 65.5405C142.229 82.6469 107.622 112.202 99.9996 118.505C92.3771 112.202 57.7698 82.6469 57.7698 65.5405ZM99.9996 127.872C74.0494 127.872 59.8813 123.301 59.8813 120.946C59.8813 119.214 68.7918 115.423 89.2521 114.315C94.3197 118.816 98.0148 121.777 98.5215 122.193C98.92 122.504 99.4493 122.677 99.9996 122.677C100.55 122.677 101.079 122.504 101.478 122.193C101.984 121.777 105.679 118.816 110.747 114.315C131.207 115.423 140.118 119.214 140.118 120.946C140.118 123.301 125.95 127.872 99.9996 127.872Z" fill="#231F20"/>
<path d="M118.94 58.1993L116.828 51.2736C116.715 50.8982 116.452 50.5647 116.08 50.3262C115.709 50.0877 115.251 49.958 114.78 49.9577H85.2191C84.7475 49.958 84.2896 50.0877 83.9184 50.3262C83.5473 50.5647 83.2841 50.8982 83.1709 51.2736L81.0594 58.1993C81.0253 58.3362 81.0041 58.4752 80.9961 58.6148V79.3918C80.9961 79.851 81.2186 80.2914 81.6145 80.6161C82.0105 80.9408 82.5476 81.1232 83.1076 81.1232H116.891C117.451 81.1232 117.988 80.9408 118.384 80.6161C118.78 80.2914 119.003 79.851 119.003 79.3918V58.6148C118.995 58.4752 118.974 58.3362 118.94 58.1993ZM106.334 53.4205H113.133L114.189 56.8834H106.334V53.4205ZM97.888 53.4205H102.111V56.8834H97.888V53.4205ZM97.888 60.3462H102.111V63.8091H97.888V60.3462ZM86.866 53.4205H93.665V56.8834H85.8103L86.866 53.4205ZM114.78 77.6604H85.2191V60.3462H93.665V65.5405C93.665 65.9997 93.8875 66.4401 94.2835 66.7648C94.6794 67.0895 95.2165 67.2719 95.7765 67.2719H104.222C104.782 67.2719 105.32 67.0895 105.715 66.7648C106.111 66.4401 106.334 65.9997 106.334 65.5405V60.3462H114.78V77.6604Z" fill="#231F20"/>
<path d="M104.223 72.4662C103.663 72.4662 103.126 72.6486 102.73 72.9733C102.334 73.298 102.111 73.7384 102.111 74.1976C102.111 74.6568 102.334 75.0972 102.73 75.4219C103.126 75.7466 103.663 75.929 104.223 75.929H110.557C111.117 75.929 111.654 75.7466 112.05 75.4219C112.446 75.0972 112.669 74.6568 112.669 74.1976C112.669 73.7384 112.446 73.298 112.05 72.9733C111.654 72.6486 111.117 72.4662 110.557 72.4662H104.223Z" fill="#231F20"/>
</svg>
