<svg width="200" height="163" viewBox="0 0 200 163" fill="none" xmlns="http://www.w3.org/2000/svg">
<g id="Frame">
<g id="Group">
<path id="Vector" d="M171.564 142.392H28.439C27.9062 142.392 27.3823 142.281 26.9169 142.068C26.4514 141.855 26.06 141.549 25.7798 141.177C25.4996 140.806 25.3398 140.382 25.3157 139.945C25.2916 139.509 25.4039 139.075 25.6421 138.684L32.7671 127.017L25.6515 115.35C25.4137 114.96 25.3013 114.526 25.325 114.09C25.3486 113.655 25.5076 113.231 25.7867 112.86C26.0658 112.488 26.456 112.182 26.9201 111.969C27.3842 111.755 27.907 111.643 28.439 111.642H171.564C172.098 111.639 172.624 111.749 173.091 111.961C173.559 112.173 173.953 112.479 174.235 112.851C174.517 113.223 174.678 113.648 174.703 114.085C174.728 114.523 174.615 114.958 174.376 115.35L167.236 127.017L174.351 138.684C174.589 139.074 174.702 139.508 174.678 139.943C174.654 140.379 174.495 140.803 174.216 141.174C173.937 141.545 173.547 141.852 173.083 142.065C172.619 142.278 172.096 142.391 171.564 142.392Z" fill="#0A5078"/>
<path id="Vector_2" d="M95.3125 138.548C95.0226 138.548 94.7384 138.482 94.4917 138.357C94.245 138.232 94.0455 138.053 93.9156 137.841L87.5 127.319V137.267C87.5 137.607 87.3354 137.933 87.0424 138.173C86.7493 138.413 86.3519 138.548 85.9375 138.548C85.5231 138.548 85.1257 138.413 84.8326 138.173C84.5396 137.933 84.375 137.607 84.375 137.267V121.892C84.375 121.603 84.4938 121.323 84.7121 121.097C84.9304 120.871 85.2354 120.712 85.5778 120.645C85.9202 120.579 86.2799 120.609 86.5987 120.731C86.9175 120.853 87.1767 121.06 87.3344 121.318L93.75 131.84V121.892C93.75 121.552 93.9146 121.226 94.2076 120.986C94.5007 120.746 94.8981 120.611 95.3125 120.611C95.7269 120.611 96.1243 120.746 96.4174 120.986C96.7104 121.226 96.875 121.552 96.875 121.892V137.267C96.8753 137.556 96.7566 137.836 96.5382 138.063C96.3199 138.289 96.0146 138.448 95.6719 138.515C95.554 138.537 95.4334 138.548 95.3125 138.548ZM79.6875 138.548C79.2731 138.548 78.8757 138.413 78.5826 138.173C78.2896 137.933 78.125 137.607 78.125 137.267V125.736C78.125 125.056 77.7958 124.404 77.2097 123.924C76.6237 123.443 75.8288 123.173 75 123.173C74.1712 123.173 73.3763 123.443 72.7903 123.924C72.2042 124.404 71.875 125.056 71.875 125.736V137.267C71.875 137.607 71.7104 137.933 71.4174 138.173C71.1243 138.413 70.7269 138.548 70.3125 138.548C69.8981 138.548 69.5007 138.413 69.2076 138.173C68.9146 137.933 68.75 137.607 68.75 137.267V125.736C68.75 124.376 69.4085 123.073 70.5806 122.112C71.7527 121.151 73.3424 120.611 75 120.611C76.6576 120.611 78.2473 121.151 79.4194 122.112C80.5915 123.073 81.25 124.376 81.25 125.736V137.267C81.25 137.607 81.0854 137.933 80.7924 138.173C80.4993 138.413 80.1019 138.548 79.6875 138.548Z" fill="#00325A"/>
<path id="Vector_3" d="M79.6875 130.861H70.3125C69.8981 130.861 69.5007 130.726 69.2076 130.485C68.9146 130.245 68.75 129.919 68.75 129.579C68.75 129.24 68.9146 128.914 69.2076 128.673C69.5007 128.433 69.8981 128.298 70.3125 128.298H79.6875C80.1019 128.298 80.4993 128.433 80.7924 128.673C81.0854 128.914 81.25 129.24 81.25 129.579C81.25 129.919 81.0854 130.245 80.7924 130.485C80.4993 130.726 80.1019 130.861 79.6875 130.861ZM126.562 138.548C126.148 138.548 125.751 138.413 125.458 138.173C125.165 137.933 125 137.607 125 137.267V125.736C125 125.056 124.671 124.404 124.085 123.924C123.499 123.443 122.704 123.173 121.875 123.173C121.046 123.173 120.251 123.443 119.665 123.924C119.079 124.404 118.75 125.056 118.75 125.736V137.267C118.75 137.607 118.585 137.933 118.292 138.173C117.999 138.413 117.602 138.548 117.188 138.548C116.773 138.548 116.376 138.413 116.083 138.173C115.79 137.933 115.625 137.607 115.625 137.267V125.736C115.625 124.376 116.283 123.073 117.456 122.112C118.628 121.151 120.217 120.611 121.875 120.611C123.533 120.611 125.122 121.151 126.294 122.112C127.467 123.073 128.125 124.376 128.125 125.736V137.267C128.125 137.607 127.96 137.933 127.667 138.173C127.374 138.413 126.977 138.548 126.562 138.548Z" fill="#00325A"/>
<path id="Vector_4" d="M126.562 130.861H117.188C116.773 130.861 116.376 130.726 116.083 130.485C115.79 130.245 115.625 129.919 115.625 129.579C115.625 129.24 115.79 128.914 116.083 128.673C116.376 128.433 116.773 128.298 117.188 128.298H126.562C126.977 128.298 127.374 128.433 127.667 128.673C127.96 128.914 128.125 129.24 128.125 129.579C128.125 129.919 127.96 130.245 127.667 130.485C127.374 130.726 126.977 130.861 126.562 130.861ZM137.5 130.861H132.812C132.398 130.861 132.001 130.726 131.708 130.485C131.415 130.245 131.25 129.919 131.25 129.579V121.892C131.25 121.552 131.415 121.226 131.708 120.986C132.001 120.746 132.398 120.611 132.812 120.611H137.5C139.158 120.611 140.747 121.151 141.919 122.112C143.092 123.073 143.75 124.376 143.75 125.736C143.75 127.095 143.092 128.398 141.919 129.36C140.747 130.321 139.158 130.861 137.5 130.861ZM134.375 128.298H137.5C138.329 128.298 139.124 128.028 139.71 127.548C140.296 127.067 140.625 126.415 140.625 125.736C140.625 125.056 140.296 124.404 139.71 123.924C139.124 123.443 138.329 123.173 137.5 123.173H134.375V128.298Z" fill="#00325A"/>
<path id="Vector_5" d="M132.812 138.548C132.398 138.548 132.001 138.413 131.708 138.173C131.415 137.933 131.25 137.607 131.25 137.267V121.892C131.25 121.552 131.415 121.226 131.708 120.986C132.001 120.746 132.398 120.611 132.812 120.611C133.227 120.611 133.624 120.746 133.917 120.986C134.21 121.226 134.375 121.552 134.375 121.892V137.267C134.375 137.607 134.21 137.933 133.917 138.173C133.624 138.413 133.227 138.548 132.812 138.548ZM142.187 138.548C141.859 138.548 141.539 138.464 141.273 138.307C141.006 138.149 140.807 137.927 140.703 137.672L137.578 129.984C137.447 129.661 137.478 129.309 137.664 129.005C137.85 128.701 138.175 128.47 138.569 128.362C138.962 128.255 139.392 128.28 139.763 128.432C140.134 128.585 140.416 128.852 140.547 129.175L143.672 136.862C143.802 137.185 143.771 137.536 143.586 137.84C143.4 138.144 143.074 138.374 142.681 138.482C142.522 138.526 142.355 138.549 142.187 138.548ZM47.0219 138.548C46.1986 138.572 45.3778 138.461 44.6078 138.221C43.8377 137.981 43.134 137.617 42.538 137.151C41.9419 136.684 41.4656 136.125 41.1371 135.506C40.8086 134.886 40.6345 134.219 40.625 133.544C40.625 133.204 40.7896 132.878 41.0826 132.638C41.3757 132.397 41.7731 132.262 42.1875 132.262C42.6019 132.262 42.9993 132.397 43.2924 132.638C43.5854 132.878 43.75 133.204 43.75 133.544C43.7508 134.191 44.0649 134.812 44.6232 135.27C45.1815 135.727 45.9385 135.985 46.7281 135.986C47.1406 136.009 47.5547 135.964 47.9454 135.853C48.336 135.742 48.6951 135.567 49.0009 135.338C49.3067 135.11 49.5529 134.833 49.7246 134.525C49.8963 134.216 49.99 133.883 50 133.544C49.9975 133.033 49.7998 132.536 49.4349 132.122C49.07 131.709 48.5562 131.399 47.9656 131.237L44.7969 130.371C43.435 129.988 42.2824 129.222 41.5428 128.208C40.8033 127.195 40.5244 126 40.7556 124.835C40.9867 123.669 41.713 122.608 42.806 121.84C43.8989 121.071 45.2882 120.644 46.7281 120.634C47.5491 120.61 48.3676 120.72 49.1358 120.959C49.904 121.197 50.6065 121.559 51.2021 122.023C51.7978 122.487 52.2746 123.044 52.6048 123.66C52.935 124.277 53.1118 124.942 53.125 125.615C53.125 125.955 52.9604 126.281 52.6674 126.521C52.3743 126.761 51.9769 126.896 51.5625 126.896C51.1481 126.896 50.7507 126.761 50.4576 126.521C50.1646 126.281 50 125.955 50 125.615C49.9992 124.968 49.6851 124.347 49.1268 123.889C48.5685 123.431 47.8115 123.174 47.0219 123.173C46.6094 123.15 46.1953 123.195 45.8046 123.306C45.414 123.417 45.0549 123.592 44.7491 123.82C44.4433 124.049 44.1971 124.325 44.0254 124.634C43.8537 124.942 43.76 125.276 43.75 125.615C43.7525 126.126 43.9502 126.623 44.3151 127.037C44.68 127.45 45.1938 127.76 45.7844 127.921L48.9531 128.788C50.3263 129.164 51.4912 129.929 52.2399 130.946C52.9886 131.962 53.2722 133.164 53.0401 134.336C52.8079 135.508 52.0752 136.574 50.9727 137.344C49.8702 138.113 48.4699 138.537 47.0219 138.538V138.548ZM65.625 123.173H56.25C55.8356 123.173 55.4382 123.038 55.1451 122.798C54.8521 122.558 54.6875 122.232 54.6875 121.892C54.6875 121.552 54.8521 121.226 55.1451 120.986C55.4382 120.746 55.8356 120.611 56.25 120.611H65.625C66.0394 120.611 66.4368 120.746 66.7299 120.986C67.0229 121.226 67.1875 121.552 67.1875 121.892C67.1875 122.232 67.0229 122.558 66.7299 122.798C66.4368 123.038 66.0394 123.173 65.625 123.173Z" fill="#00325A"/>
<path id="Vector_6" d="M60.9375 138.548C60.5231 138.548 60.1257 138.413 59.8326 138.173C59.5396 137.933 59.375 137.607 59.375 137.267V121.892C59.375 121.552 59.5396 121.226 59.8326 120.986C60.1257 120.746 60.5231 120.611 60.9375 120.611C61.3519 120.611 61.7493 120.746 62.0424 120.986C62.3354 121.226 62.5 121.552 62.5 121.892V137.267C62.5 137.607 62.3354 137.933 62.0424 138.173C61.7493 138.413 61.3519 138.548 60.9375 138.548ZM104.688 138.548H101.562C101.148 138.548 100.751 138.413 100.458 138.173C100.165 137.933 100 137.607 100 137.267V121.892C100 121.552 100.165 121.226 100.458 120.986C100.751 120.746 101.148 120.611 101.562 120.611H104.688C106.76 120.611 108.747 121.286 110.212 122.487C111.677 123.688 112.5 125.318 112.5 127.017V132.142C112.5 133.841 111.677 135.47 110.212 136.672C108.747 137.873 106.76 138.548 104.688 138.548ZM103.125 135.986H104.688C105.931 135.986 107.123 135.581 108.002 134.86C108.881 134.139 109.375 133.161 109.375 132.142V127.017C109.375 125.997 108.881 125.02 108.002 124.299C107.123 123.578 105.931 123.173 104.688 123.173H103.125V135.986ZM151.562 138.548H148.438C148.023 138.548 147.626 138.413 147.333 138.173C147.04 137.933 146.875 137.607 146.875 137.267V121.892C146.875 121.552 147.04 121.226 147.333 120.986C147.626 120.746 148.023 120.611 148.438 120.611H151.562C153.635 120.611 155.622 121.286 157.087 122.487C158.552 123.688 159.375 125.318 159.375 127.017V132.142C159.375 133.841 158.552 135.47 157.087 136.672C155.622 137.873 153.635 138.548 151.562 138.548ZM150 135.986H151.562C152.806 135.986 153.998 135.581 154.877 134.86C155.756 134.139 156.25 133.161 156.25 132.142V127.017C156.25 125.997 155.756 125.02 154.877 124.299C153.998 123.578 152.806 123.173 151.562 123.173H150V135.986Z" fill="#00325A"/>
<path id="Vector_7" d="M168.75 80.8919V98.8294C168.75 99.509 168.421 100.161 167.835 100.641C167.249 101.122 166.454 101.392 165.625 101.392H118.75V50.1419H144.875C146.316 50.1417 147.712 50.5496 148.829 51.2968C149.945 52.0439 150.712 53.0843 151 54.2419L156.25 75.7669H162.5C164.156 75.771 165.743 76.3122 166.914 77.2725C168.085 78.2327 168.745 79.5339 168.75 80.8919Z" fill="#00A0C8"/>
<path id="Vector_8" d="M151.875 57.8294H118.75V50.1419H144.875C146.316 50.1417 147.712 50.5496 148.829 51.2968C149.945 52.0439 150.712 53.0843 151 54.2419L151.875 57.8294Z" fill="#0082AA"/>
<path id="Vector_9" d="M175 101.392C175 102.072 174.671 102.723 174.085 103.204C173.499 103.684 172.704 103.954 171.875 103.954H165.625C164.796 103.954 164.001 103.684 163.415 103.204C162.829 102.723 162.5 102.072 162.5 101.392C162.5 100.712 162.829 100.061 163.415 99.5799C164.001 99.0994 164.796 98.8294 165.625 98.8294H171.875C172.704 98.8294 173.499 99.0994 174.085 99.5799C174.671 100.061 175 100.712 175 101.392Z" fill="#F0F0F0"/>
<path id="Vector_10" d="M156.25 75.7669H128.125C127.296 75.7669 126.501 75.4969 125.915 75.0164C125.329 74.5358 125 73.884 125 73.2044V62.9544C125 62.2748 125.329 61.623 125.915 61.1424C126.501 60.6619 127.296 60.3919 128.125 60.3919H152.5L156.25 75.7669Z" fill="#0A5078"/>
<path id="Vector_11" d="M118.75 42.4544V101.392H31.25V42.4544C31.2549 41.0964 31.915 39.7952 33.086 38.835C34.2571 37.8747 35.8439 37.3335 37.5 37.3294H112.5C114.156 37.3335 115.743 37.8747 116.914 38.835C118.085 39.7952 118.745 41.0964 118.75 42.4544Z" fill="#FAB400"/>
<path id="Vector_12" d="M56.25 111.642C63.1536 111.642 68.75 107.053 68.75 101.392C68.75 95.731 63.1536 91.1419 56.25 91.1419C49.3464 91.1419 43.75 95.731 43.75 101.392C43.75 107.053 49.3464 111.642 56.25 111.642Z" fill="#0A5078"/>
<path id="Vector_13" d="M56.25 106.517C59.7018 106.517 62.5 104.222 62.5 101.392C62.5 98.5614 59.7018 96.2669 56.25 96.2669C52.7982 96.2669 50 98.5614 50 101.392C50 104.222 52.7982 106.517 56.25 106.517Z" fill="#F0F0F0"/>
<path id="Vector_14" d="M143.75 111.642C150.654 111.642 156.25 107.053 156.25 101.392C156.25 95.731 150.654 91.1419 143.75 91.1419C136.846 91.1419 131.25 95.731 131.25 101.392C131.25 107.053 136.846 111.642 143.75 111.642Z" fill="#0A5078"/>
<path id="Vector_15" d="M143.75 106.517C147.202 106.517 150 104.222 150 101.392C150 98.5614 147.202 96.2669 143.75 96.2669C140.298 96.2669 137.5 98.5614 137.5 101.392C137.5 104.222 140.298 106.517 143.75 106.517Z" fill="#F0F0F0"/>
<path id="Vector_16" d="M82.5 65.0044L75 60.3919L67.5 65.0044C67.0357 65.2899 66.4836 65.4638 65.9056 65.5066C65.3276 65.5493 64.7465 65.4592 64.2275 65.2464C63.7084 65.0336 63.2718 64.7064 62.9667 64.3016C62.6616 63.8968 62.5 63.4303 62.5 62.9544V37.3294H87.5V62.9544C87.5 63.4303 87.3384 63.8968 87.0333 64.3016C86.7282 64.7064 86.2916 65.0336 85.7725 65.2464C85.2535 65.4592 84.6724 65.5493 84.0944 65.5066C83.5164 65.4638 82.9643 65.2899 82.5 65.0044Z" fill="#C80A50"/>
<path id="Vector_17" d="M118.75 47.5794H153.125C154.783 47.5794 156.372 48.1194 157.544 49.0805C158.717 50.0416 159.375 51.3452 159.375 52.7044C159.375 53.384 159.046 54.0358 158.46 54.5164C157.874 54.9969 157.079 55.2669 156.25 55.2669H118.75V47.5794Z" fill="#F0F0F0"/>
<path id="Vector_18" d="M132.812 80.8919H126.562C125.7 80.8919 125 81.4655 125 82.1732C125 82.8808 125.7 83.4544 126.562 83.4544H132.812C133.675 83.4544 134.375 82.8808 134.375 82.1732C134.375 81.4655 133.675 80.8919 132.812 80.8919Z" fill="#F0F0F0"/>
<path id="Vector_19" d="M59.375 78.3294H90.625C91.4538 78.3294 92.2487 78.0594 92.8347 77.5789C93.4208 77.0983 93.75 76.4465 93.75 75.7669C93.75 75.0873 93.4208 74.4355 92.8347 73.9549C92.2487 73.4744 91.4538 73.2044 90.625 73.2044H59.375C58.5462 73.2044 57.7513 73.4744 57.1653 73.9549C56.5792 74.4355 56.25 75.0873 56.25 75.7669C56.25 76.4465 56.5792 77.0983 57.1653 77.5789C57.7513 78.0594 58.5462 78.3294 59.375 78.3294ZM90.625 83.4544H59.375C58.5462 83.4544 57.7513 83.7244 57.1653 84.2049C56.5792 84.6855 56.25 85.3373 56.25 86.0169C56.25 86.6965 56.5792 87.3483 57.1653 87.8289C57.7513 88.3094 58.5462 88.5794 59.375 88.5794H90.625C91.4538 88.5794 92.2487 88.3094 92.8347 87.8289C93.4208 87.3483 93.75 86.6965 93.75 86.0169C93.75 85.3373 93.4208 84.6855 92.8347 84.2049C92.2487 83.7244 91.4538 83.4544 90.625 83.4544Z" fill="#0A5078"/>
<g id="Group_2">
<path id="Vector_20" d="M28.125 98.8294H34.375C35.2038 98.8294 35.9987 99.0994 36.5847 99.5799C37.1708 100.061 37.5 100.712 37.5 101.392C37.5 102.072 37.1708 102.723 36.5847 103.204C35.9987 103.684 35.2038 103.954 34.375 103.954H28.125C27.2962 103.954 26.5013 103.684 25.9153 103.204C25.3292 102.723 25 102.072 25 101.392C25 100.712 25.3292 100.061 25.9153 99.5799C26.5013 99.0994 27.2962 98.8294 28.125 98.8294ZM95.3125 135.986C95.0226 135.986 94.7384 135.919 94.4917 135.795C94.245 135.67 94.0455 135.491 93.9156 135.278L87.5 124.757V134.704C87.5 135.044 87.3354 135.37 87.0424 135.61C86.7493 135.851 86.3519 135.986 85.9375 135.986C85.5231 135.986 85.1257 135.851 84.8326 135.61C84.5396 135.37 84.375 135.044 84.375 134.704V119.329C84.375 119.041 84.4938 118.761 84.7121 118.535C84.9304 118.308 85.2354 118.149 85.5778 118.083C85.9202 118.016 86.2799 118.047 86.5987 118.169C86.9175 118.291 87.1767 118.497 87.3344 118.755L93.75 129.277V119.329C93.75 118.99 93.9146 118.664 94.2076 118.423C94.5007 118.183 94.8981 118.048 95.3125 118.048C95.7269 118.048 96.1243 118.183 96.4174 118.423C96.7104 118.664 96.875 118.99 96.875 119.329V134.704C96.8753 134.993 96.7566 135.274 96.5382 135.5C96.3199 135.727 96.0146 135.886 95.6719 135.952C95.554 135.975 95.4334 135.986 95.3125 135.986ZM79.6875 135.986C79.2731 135.986 78.8757 135.851 78.5826 135.61C78.2896 135.37 78.125 135.044 78.125 134.704V123.173C78.125 122.494 77.7958 121.842 77.2097 121.361C76.6237 120.881 75.8288 120.611 75 120.611C74.1712 120.611 73.3763 120.881 72.7903 121.361C72.2042 121.842 71.875 122.494 71.875 123.173V134.704C71.875 135.044 71.7104 135.37 71.4174 135.61C71.1243 135.851 70.7269 135.986 70.3125 135.986C69.8981 135.986 69.5007 135.851 69.2076 135.61C68.9146 135.37 68.75 135.044 68.75 134.704V123.173C68.75 121.814 69.4085 120.51 70.5806 119.549C71.7527 118.588 73.3424 118.048 75 118.048C76.6576 118.048 78.2473 118.588 79.4194 119.549C80.5915 120.51 81.25 121.814 81.25 123.173V134.704C81.25 135.044 81.0854 135.37 80.7924 135.61C80.4993 135.851 80.1019 135.986 79.6875 135.986Z" fill="#F0F0F0"/>
<path id="Vector_21" d="M79.6875 128.298H70.3125C69.8981 128.298 69.5007 128.163 69.2076 127.923C68.9146 127.683 68.75 127.357 68.75 127.017C68.75 126.677 68.9146 126.351 69.2076 126.111C69.5007 125.871 69.8981 125.736 70.3125 125.736H79.6875C80.1019 125.736 80.4993 125.871 80.7924 126.111C81.0854 126.351 81.25 126.677 81.25 127.017C81.25 127.357 81.0854 127.683 80.7924 127.923C80.4993 128.163 80.1019 128.298 79.6875 128.298ZM126.562 135.986C126.148 135.986 125.751 135.851 125.458 135.61C125.165 135.37 125 135.044 125 134.704V123.173C125 122.494 124.671 121.842 124.085 121.361C123.499 120.881 122.704 120.611 121.875 120.611C121.046 120.611 120.251 120.881 119.665 121.361C119.079 121.842 118.75 122.494 118.75 123.173V134.704C118.75 135.044 118.585 135.37 118.292 135.61C117.999 135.851 117.602 135.986 117.188 135.986C116.773 135.986 116.376 135.851 116.083 135.61C115.79 135.37 115.625 135.044 115.625 134.704V123.173C115.625 121.814 116.283 120.51 117.456 119.549C118.628 118.588 120.217 118.048 121.875 118.048C123.533 118.048 125.122 118.588 126.294 119.549C127.467 120.51 128.125 121.814 128.125 123.173V134.704C128.125 135.044 127.96 135.37 127.667 135.61C127.374 135.851 126.977 135.986 126.562 135.986Z" fill="#F0F0F0"/>
<path id="Vector_22" d="M126.562 128.298H117.188C116.773 128.298 116.376 128.163 116.083 127.923C115.79 127.683 115.625 127.357 115.625 127.017C115.625 126.677 115.79 126.351 116.083 126.111C116.376 125.871 116.773 125.736 117.188 125.736H126.562C126.977 125.736 127.374 125.871 127.667 126.111C127.96 126.351 128.125 126.677 128.125 127.017C128.125 127.357 127.96 127.683 127.667 127.923C127.374 128.163 126.977 128.298 126.562 128.298ZM137.5 128.298H132.812C132.398 128.298 132.001 128.163 131.708 127.923C131.415 127.683 131.25 127.357 131.25 127.017V119.329C131.25 118.99 131.415 118.664 131.708 118.423C132.001 118.183 132.398 118.048 132.812 118.048H137.5C139.158 118.048 140.747 118.588 141.919 119.549C143.092 120.51 143.75 121.814 143.75 123.173C143.75 124.532 143.092 125.836 141.919 126.797C140.747 127.758 139.158 128.298 137.5 128.298ZM134.375 125.736H137.5C138.329 125.736 139.124 125.466 139.71 124.985C140.296 124.505 140.625 123.853 140.625 123.173C140.625 122.494 140.296 121.842 139.71 121.361C139.124 120.881 138.329 120.611 137.5 120.611H134.375V125.736Z" fill="#F0F0F0"/>
<path id="Vector_23" d="M132.812 135.986C132.398 135.986 132.001 135.851 131.708 135.61C131.415 135.37 131.25 135.044 131.25 134.704V119.329C131.25 118.99 131.415 118.664 131.708 118.423C132.001 118.183 132.398 118.048 132.812 118.048C133.227 118.048 133.624 118.183 133.917 118.423C134.21 118.664 134.375 118.99 134.375 119.329V134.704C134.375 135.044 134.21 135.37 133.917 135.61C133.624 135.851 133.227 135.986 132.812 135.986ZM142.187 135.986C141.859 135.986 141.539 135.902 141.273 135.744C141.006 135.587 140.807 135.365 140.703 135.109L137.578 127.422C137.447 127.099 137.478 126.747 137.664 126.443C137.85 126.138 138.175 125.907 138.569 125.8C138.962 125.692 139.392 125.718 139.763 125.87C140.134 126.022 140.416 126.289 140.547 126.612L143.672 134.3C143.802 134.622 143.771 134.974 143.586 135.277C143.4 135.581 143.074 135.812 142.681 135.919C142.522 135.964 142.355 135.986 142.187 135.986ZM47.0219 135.986C46.1986 136.01 45.3778 135.898 44.6078 135.658C43.8377 135.418 43.134 135.054 42.538 134.588C41.9419 134.122 41.4656 133.563 41.1371 132.943C40.8086 132.324 40.6345 131.657 40.625 130.981C40.625 130.641 40.7896 130.315 41.0826 130.075C41.3757 129.835 41.7731 129.7 42.1875 129.7C42.6019 129.7 42.9993 129.835 43.2924 130.075C43.5854 130.315 43.75 130.641 43.75 130.981C43.7508 131.629 44.0649 132.249 44.6232 132.707C45.1815 133.165 45.9385 133.422 46.7281 133.423C47.1406 133.447 47.5547 133.402 47.9454 133.29C48.336 133.179 48.6951 133.004 49.0009 132.776C49.3067 132.548 49.5529 132.271 49.7246 131.962C49.8963 131.654 49.99 131.32 50 130.981C49.9975 130.471 49.7998 129.973 49.4349 129.56C49.07 129.146 48.5562 128.837 47.9656 128.675L44.7969 127.809C43.435 127.425 42.2824 126.659 41.5428 125.646C40.8033 124.633 40.5244 123.438 40.7556 122.272C40.9867 121.107 41.713 120.046 42.806 119.277C43.8989 118.508 45.2882 118.081 46.7281 118.071C47.5491 118.047 48.3676 118.158 49.1358 118.396C49.904 118.635 50.6065 118.997 51.2021 119.461C51.7978 119.924 52.2746 120.481 52.6048 121.098C52.935 121.715 53.1118 122.379 53.125 123.053C53.125 123.393 52.9604 123.718 52.6674 123.959C52.3743 124.199 51.9769 124.334 51.5625 124.334C51.1481 124.334 50.7507 124.199 50.4576 123.959C50.1646 123.718 50 123.393 50 123.053C49.9992 122.405 49.6851 121.784 49.1268 121.327C48.5685 120.869 47.8115 120.611 47.0219 120.611C46.6094 120.587 46.1953 120.632 45.8046 120.743C45.414 120.855 45.0549 121.03 44.7491 121.258C44.4433 121.486 44.1971 121.763 44.0254 122.071C43.8537 122.38 43.76 122.714 43.75 123.053C43.7525 123.563 43.9502 124.06 44.3151 124.474C44.68 124.888 45.1938 125.197 45.7844 125.359L48.9531 126.225C50.3263 126.602 51.4912 127.367 52.2399 128.383C52.9886 129.4 53.2722 130.601 53.0401 131.773C52.8079 132.945 52.0752 134.011 50.9727 134.781C49.8702 135.551 48.4699 135.974 47.0219 135.975V135.986ZM65.625 120.611H56.25C55.8356 120.611 55.4382 120.476 55.1451 120.235C54.8521 119.995 54.6875 119.669 54.6875 119.329C54.6875 118.99 54.8521 118.664 55.1451 118.423C55.4382 118.183 55.8356 118.048 56.25 118.048H65.625C66.0394 118.048 66.4368 118.183 66.7299 118.423C67.0229 118.664 67.1875 118.99 67.1875 119.329C67.1875 119.669 67.0229 119.995 66.7299 120.235C66.4368 120.476 66.0394 120.611 65.625 120.611Z" fill="#F0F0F0"/>
<path id="Vector_24" d="M60.9375 135.986C60.5231 135.986 60.1257 135.851 59.8326 135.61C59.5396 135.37 59.375 135.044 59.375 134.704V119.329C59.375 118.99 59.5396 118.664 59.8326 118.423C60.1257 118.183 60.5231 118.048 60.9375 118.048C61.3519 118.048 61.7493 118.183 62.0424 118.423C62.3354 118.664 62.5 118.99 62.5 119.329V134.704C62.5 135.044 62.3354 135.37 62.0424 135.61C61.7493 135.851 61.3519 135.986 60.9375 135.986ZM104.688 135.986H101.562C101.148 135.986 100.751 135.851 100.458 135.61C100.165 135.37 100 135.044 100 134.704V119.329C100 118.99 100.165 118.664 100.458 118.423C100.751 118.183 101.148 118.048 101.562 118.048H104.688C106.76 118.048 108.747 118.723 110.212 119.924C111.677 121.126 112.5 122.755 112.5 124.454V129.579C112.5 131.278 111.677 132.908 110.212 134.109C108.747 135.311 106.76 135.986 104.688 135.986ZM103.125 133.423H104.688C105.931 133.423 107.123 133.018 108.002 132.297C108.881 131.577 109.375 130.599 109.375 129.579V124.454C109.375 123.435 108.881 122.457 108.002 121.736C107.123 121.016 105.931 120.611 104.688 120.611H103.125V133.423ZM151.562 135.986H148.438C148.023 135.986 147.626 135.851 147.333 135.61C147.04 135.37 146.875 135.044 146.875 134.704V119.329C146.875 118.99 147.04 118.664 147.333 118.423C147.626 118.183 148.023 118.048 148.438 118.048H151.562C153.635 118.048 155.622 118.723 157.087 119.924C158.552 121.126 159.375 122.755 159.375 124.454V129.579C159.375 131.278 158.552 132.908 157.087 134.109C155.622 135.311 153.635 135.986 151.562 135.986ZM150 133.423H151.562C152.806 133.423 153.998 133.018 154.877 132.297C155.756 131.577 156.25 130.599 156.25 129.579V124.454C156.25 123.435 155.756 122.457 154.877 121.736C153.998 121.016 152.806 120.611 151.562 120.611H150V133.423Z" fill="#F0F0F0"/>
</g>
<path id="Vector_25" d="M78.125 21.9544V27.0794C78.125 27.759 77.7958 28.4108 77.2097 28.8914C76.6237 29.3719 75.8288 29.6419 75 29.6419C74.1712 29.6419 73.3763 29.3719 72.7903 28.8914C72.2042 28.4108 71.875 27.759 71.875 27.0794V21.9544C71.875 21.2748 72.2042 20.623 72.7903 20.1424C73.3763 19.6619 74.1712 19.3919 75 19.3919C75.8288 19.3919 76.6237 19.6619 77.2097 20.1424C77.7958 20.623 78.125 21.2748 78.125 21.9544Z" fill="#C80A50"/>
<path id="Vector_26" d="M95.9595 28.8899L91.5407 32.5133C91.2525 32.7581 90.9076 32.9533 90.5264 33.0876C90.1451 33.2219 89.7351 33.2926 89.3201 33.2955C88.9052 33.2985 88.4937 33.2336 88.1096 33.1048C87.7256 32.976 87.3767 32.7857 87.0833 32.5451C86.7898 32.3045 86.5578 32.0184 86.4007 31.7034C86.2435 31.3885 86.1645 31.0511 86.1681 30.7108C86.1717 30.3706 86.2579 30.0344 86.4217 29.7217C86.5855 29.4091 86.8235 29.1263 87.122 28.8899L91.5407 25.2666C92.1301 24.7998 92.9195 24.5415 93.7389 24.5473C94.5582 24.5532 95.342 24.8227 95.9214 25.2978C96.5008 25.7729 96.8295 26.4156 96.8366 27.0875C96.8437 27.7594 96.5287 28.4066 95.9595 28.8899Z" fill="#0A5078"/>
<path id="Vector_27" d="M62.8788 32.5133C62.2928 32.9936 61.4981 33.2635 60.6694 33.2635C59.8408 33.2635 59.0461 32.9936 58.46 32.5133L54.0413 28.8899C53.472 28.4066 53.1571 27.7593 53.1642 27.0874C53.1713 26.4155 53.5 25.7728 54.0794 25.2977C54.6588 24.8226 55.4425 24.5531 56.2619 24.5473C57.0813 24.5414 57.8707 24.7997 58.46 25.2665L62.8788 28.8899C63.4646 29.3704 63.7937 30.0221 63.7937 30.7016C63.7937 31.381 63.4646 32.0327 62.8788 32.5133Z" fill="#00A0C8"/>
</g>
</g>
</svg>
