<svg width="48" height="48" viewBox="0 0 48 48" fill="none" xmlns="http://www.w3.org/2000/svg">
<rect x="0.5" y="0.5" width="47" height="47" rx="23.5" fill="white"/>
<rect x="0.5" y="0.5" width="47" height="47" rx="23.5" stroke="#DEDEDE"/>
<path d="M22.6667 10.6667C17.6383 10.6667 15.1242 10.6667 13.5621 12.1717C12 13.6766 12 16.0989 12 20.9434V31.9744C12 35.0489 12 36.5861 13.0305 37.1364C15.026 38.2019 18.7691 34.6469 20.5467 33.5765C21.5776 32.9557 22.0931 32.6453 22.6667 32.6453C23.2403 32.6453 23.7557 32.9557 24.7867 33.5765C26.5643 34.6469 30.3073 38.2019 32.3029 37.1364C33.3333 36.5861 33.3333 35.0489 33.3333 31.9744V24.6667" stroke="#FFAD00" stroke-width="1.5" stroke-linecap="round" stroke-linejoin="round"/>
<path d="M12.667 17.3333H21.3337" stroke="#FFAD00" stroke-width="1.5" stroke-linecap="round"/>
<path d="M30.6663 21.3334V10.6667M25.333 16.0001H35.9997" stroke="#FFAD00" stroke-width="1.5" stroke-linecap="round"/>
</svg>
