<svg width="48" height="48" viewBox="0 0 48 48" fill="none" xmlns="http://www.w3.org/2000/svg">
<rect x="0.5" y="0.5" width="47" height="47" rx="23.5" fill="white"/>
<rect x="0.5" y="0.5" width="47" height="47" rx="23.5" stroke="#DEDEDE"/>
<path d="M25.3337 12.0031C24.7069 12 24.0413 12 23.3337 12C17.3625 12 14.377 12 12.522 13.855C10.667 15.71 10.667 18.6955 10.667 24.6667C10.667 30.6377 10.667 33.6233 12.522 35.4784C14.377 37.3333 17.3625 37.3333 23.3337 37.3333C29.3047 37.3333 32.2903 37.3333 34.1454 35.4784C35.9299 33.6937 35.9977 30.8627 36.0002 25.3333" stroke="#FFAD00" stroke-width="1.5" stroke-linecap="round"/>
<path d="M10.667 26.8473C11.4924 26.7274 12.3268 26.6682 13.1626 26.6703C16.6985 26.5955 20.1478 27.6973 22.8951 29.779C25.443 31.7095 27.2333 34.3666 28.0003 37.3334" stroke="#FFAD00" stroke-width="1.5" stroke-linejoin="round"/>
<path d="M36 30.5283C34.4328 29.7345 32.8117 29.3317 31.1816 29.3335C28.7127 29.3237 26.2687 30.2311 24 32" stroke="#FFAD00" stroke-width="1.5" stroke-linejoin="round"/>
<path d="M30.667 14.0001C31.3223 13.3258 33.0667 10.6667 34.0003 10.6667M34.0003 10.6667C34.9339 10.6667 36.6783 13.3258 37.3337 14.0001M34.0003 10.6667V21.3334" stroke="#FFAD00" stroke-width="1.5" stroke-linecap="round" stroke-linejoin="round"/>
</svg>
