<svg width="48" height="48" viewBox="0 0 48 48" fill="none" xmlns="http://www.w3.org/2000/svg">
<rect x="0.5" y="0.5" width="47" height="47" rx="23.5" fill="white"/>
<rect x="0.5" y="0.5" width="47" height="47" rx="23.5" stroke="#DEDEDE"/>
<path d="M26.7653 13.1807C27.7589 12.1042 28.2557 11.5659 28.7835 11.252C30.0573 10.4944 31.6258 10.4709 32.9209 11.1898C33.4575 11.4878 33.9695 12.0109 34.9937 13.0571C36.0178 14.1033 36.5299 14.6264 36.8215 15.1747C37.5254 16.4976 37.5023 18.0998 36.7607 19.401C36.4534 19.9403 35.9265 20.4478 34.8727 21.4627L22.3345 33.5392C20.3375 35.4626 19.339 36.4243 18.0911 36.9117C16.8432 37.3991 15.4713 37.3633 12.7275 37.2915L12.3542 37.2818C11.5189 37.2599 11.1012 37.249 10.8584 36.9734C10.6157 36.6979 10.6488 36.2725 10.7151 35.4217L10.7511 34.9597C10.9377 32.5647 11.031 31.3674 11.4986 30.291C11.9662 29.2146 12.7729 28.3407 14.3862 26.5927L26.7653 13.1807Z" stroke="#FFAD00" stroke-width="1.5" stroke-linejoin="round"/>
<path d="M25.333 13.3333L34.6663 22.6666" stroke="#FFAD00" stroke-width="1.5" stroke-linejoin="round"/>
<path d="M26.667 37.3333H37.3337" stroke="#FFAD00" stroke-width="1.5" stroke-linecap="round" stroke-linejoin="round"/>
</svg>
