<svg width="44" height="14" viewBox="0 0 44 14" fill="none" xmlns="http://www.w3.org/2000/svg">
<path id="visa-logo" fill-rule="evenodd" clip-rule="evenodd" d="M10.9671 13.8906H7.17074L4.32392 3.02983C4.1888 2.53023 3.90189 2.08856 3.47987 1.8804C2.42665 1.35727 1.26608 0.940937 0 0.730962V0.312821H6.11568C6.95973 0.312821 7.59277 0.940937 7.69828 1.67042L9.17537 9.50468L12.9699 0.312821H16.6608L10.9671 13.8906ZM18.7711 13.8906H15.1858L18.1381 0.312821H21.7235L18.7711 13.8906ZM26.3621 4.07461C26.4676 3.34332 27.1007 2.92518 27.8392 2.92518C28.9998 2.82019 30.264 3.03016 31.3191 3.55148L31.9521 0.628116C30.8971 0.209975 29.7365 0 28.6833 0C25.2034 0 22.6713 1.88073 22.6713 4.49094C22.6713 6.47666 24.4649 7.51929 25.7309 8.14741C27.1007 8.77372 27.6282 9.19186 27.5227 9.81816C27.5227 10.7576 26.4676 11.1758 25.4144 11.1758C24.1483 11.1758 22.8823 10.8626 21.7235 10.3395L21.0905 13.2647C22.3566 13.786 23.7263 13.996 24.9924 13.996C28.8943 14.0991 31.3191 12.2202 31.3191 9.40002C31.3191 5.84854 26.3621 5.64038 26.3621 4.07461ZM43.8667 13.8906L41.0199 0.312821H37.9621C37.329 0.312821 36.696 0.730962 36.485 1.35727L31.2134 13.8906H34.9042L35.6409 11.9067H40.1759L40.5979 13.8906H43.8667ZM38.4892 3.96904L39.5424 9.08629H36.5901L38.4892 3.96904Z" fill="#172B85"/>
</svg>
